<svg width="185" height="25" viewBox="0 0 185 25" fill="none" xmlns="http://www.w3.org/2000/svg">
<g clip-path="url(#clip0_13_18)">
<path d="M41.518 6.70601V6.70501C41.518 6.64901 41.423 6.62801 41.423 6.62801C39.778 6.14501 38.393 4.83201 37.976 3.28701L37.9 3.03501C37.9 3.03501 37.888 2.96901 37.839 2.96901C37.791 2.96901 37.778 3.03501 37.778 3.03501L37.702 3.28601C37.285 4.83101 35.901 6.14501 34.255 6.62801C34.255 6.62801 34.16 6.64901 34.16 6.70501V6.70601C34.16 6.76201 34.255 6.78301 34.255 6.78301C35.901 7.26701 37.286 8.58001 37.702 10.125L37.778 10.376C37.778 10.376 37.791 10.443 37.839 10.443V10.442C37.888 10.442 37.9 10.376 37.9 10.376L37.976 10.125C38.394 8.58001 39.778 7.26601 41.423 6.78301C41.422 6.78301 41.518 6.76201 41.518 6.70601V6.70601ZM44.94 2.28301V2.28201C44.94 2.25401 44.891 2.24201 44.891 2.24201C44.04 1.99201 43.324 1.31301 43.109 0.515006L43.069 0.385006C43.069 0.385006 43.062 0.350006 43.037 0.350006C43.012 0.350006 43.006 0.385006 43.006 0.385006L42.966 0.514006C42.751 1.31401 42.034 1.99201 41.184 2.24201C41.184 2.24201 41.135 2.25301 41.135 2.28301C41.135 2.31101 41.184 2.32301 41.184 2.32301C42.034 2.57301 42.751 3.25301 42.966 4.05101L43.006 4.18101C43.006 4.18101 43.012 4.21601 43.037 4.21601V4.21401C43.061 4.21401 43.069 4.18001 43.069 4.18001L43.109 4.05001C43.324 3.25001 44.04 2.57201 44.891 2.32201C44.892 2.32201 44.94 2.31101 44.94 2.28301V2.28301Z" fill="#E20613"/>
<path d="M8.547 20.217C8.134 21.095 7.309 21.662 6.139 21.662C4.694 21.662 3.267 20.682 3.267 18.532C3.267 16.692 4.368 15.334 6.087 15.334C7.274 15.334 8.099 15.867 8.598 16.899C8.632 16.985 8.65 17.02 8.753 16.985L11.315 15.987C11.384 15.952 11.453 15.883 11.367 15.677C10.593 13.923 8.856 12.392 6.019 12.392C2.648 12.392 0 14.989 0 18.514C0 21.817 2.442 24.585 6.105 24.585C7.25465 24.5946 8.38102 24.261 9.33997 23.6268C10.2989 22.9926 11.0468 22.0867 11.488 21.025C11.522 20.921 11.505 20.836 11.333 20.802L8.753 20.097C8.616 20.063 8.599 20.132 8.547 20.217V20.217ZM23.639 24.052C21.746 20.251 19.408 15.47 17.757 12.255C17.74 12.22 17.362 12.203 17.345 12.255C15.78 15.178 13.286 20.251 11.498 24.052C11.429 24.224 11.446 24.293 11.584 24.293H14.439C14.662 24.293 14.697 24.241 14.749 24.104C14.921 23.692 15.144 23.106 15.35 22.625H19.512C19.684 23.055 19.942 23.692 20.148 24.156C20.2 24.276 20.269 24.293 20.354 24.293H23.57C23.724 24.293 23.742 24.276 23.639 24.052ZM18.6 20.39H16.21L17.379 17.776L18.6 20.39ZM24.514 21.954C25.098 23.639 26.56 24.585 28.899 24.585C31.599 24.585 33.784 23.416 33.784 20.767C33.784 18.617 32.511 17.448 30.31 17.138C30.086 17.103 29.897 17.069 29.742 17.053C28.194 16.795 27.558 16.468 27.558 15.676C27.558 15.04 27.937 14.593 29.14 14.593C30.035 14.593 30.825 15.264 31.066 15.951C31.101 16.037 31.152 16.072 31.273 16.02L33.285 15.211C33.389 15.176 33.457 15.108 33.406 14.918C32.958 13.474 31.548 12.39 29.261 12.39C26.217 12.39 24.686 13.956 24.686 16.191C24.686 18.323 26.131 19.493 28.211 19.699C28.332 19.716 28.504 19.734 28.624 19.751C30.206 19.94 30.705 20.388 30.705 21.093C30.705 21.883 30.154 22.245 28.968 22.245C27.885 22.245 27.094 21.488 26.887 20.852C26.852 20.714 26.852 20.714 26.698 20.766L24.583 21.625C24.462 21.679 24.445 21.765 24.514 21.954V21.954ZM39.183 12.787C39.183 12.65 39.166 12.633 39.011 12.633H36.156C36.002 12.633 36.002 12.616 36.002 12.787V24.138C36.002 24.31 36.002 24.292 36.156 24.292H39.011C39.165 24.292 39.183 24.275 39.183 24.138V12.787ZM51.878 24.593V12.666C51.855 12.643 51.815 12.633 51.737 12.633H49.123C48.986 12.633 48.986 12.65 48.986 12.839V17.999C48.986 17.999 44.773 14.095 42.313 12.34C42.227 12.289 42.124 12.272 42.124 12.461L42.113 13.255V23.468C42.116 23.686 42.119 23.893 42.124 24.12C42.124 24.189 42.176 24.292 42.296 24.292H44.893C45.047 24.292 45.047 24.292 45.047 24.138V18.875C45.047 18.875 49.106 22.607 51.703 24.55C51.799 24.621 51.85 24.628 51.878 24.593V24.593ZM66.441 18.497C66.441 15.127 63.81 12.392 60.336 12.392C56.862 12.392 54.231 15.127 54.231 18.497C54.231 21.868 56.862 24.586 60.336 24.586C63.81 24.586 66.441 21.868 66.441 18.497ZM63.225 18.497C63.225 20.269 62.158 21.644 60.336 21.644C58.479 21.644 57.447 20.268 57.447 18.497C57.447 16.726 58.479 15.333 60.336 15.333C62.158 15.333 63.225 16.726 63.225 18.497ZM83.405 15.682C83.405 13.746 82.126 12.604 79.999 12.604H73.947C73.791 12.604 73.739 12.639 73.739 12.777V24.086C73.739 24.311 73.756 24.328 73.895 24.328H80.432C82.489 24.328 83.735 23.049 83.735 21.147C83.735 19.781 82.818 18.431 81.331 18.276C82.678 17.896 83.405 16.944 83.405 15.682V15.682ZM80.257 16.131C80.257 16.823 79.86 17.238 79.151 17.238H76.834V15.024H79.151C79.86 15.025 80.257 15.406 80.257 16.131ZM80.517 20.645C80.517 21.458 80.05 21.908 79.323 21.908H76.833V19.365H79.323C80.016 19.365 80.517 19.901 80.517 20.645V20.645ZM97.12 24.086C95.218 20.265 92.866 15.458 91.206 12.224C91.189 12.189 90.808 12.172 90.791 12.224C89.217 15.163 86.71 20.265 84.912 24.086C84.843 24.259 84.86 24.328 84.998 24.328H87.869C88.094 24.328 88.128 24.276 88.18 24.138C88.353 23.724 88.578 23.135 88.786 22.651H92.971C93.144 23.084 93.404 23.724 93.611 24.19C93.663 24.311 93.732 24.328 93.818 24.328H97.052C97.206 24.327 97.224 24.31 97.12 24.086V24.086ZM92.053 20.403H89.65L90.825 17.774L92.053 20.403ZM109.881 23.861C108.878 22.236 107.893 20.489 107.443 19.78C108.499 19.278 109.051 18.154 109.051 16.564C109.051 14.437 107.634 12.604 104.97 12.604H99.61C99.558 12.604 99.472 12.587 99.472 12.759V24.172C99.472 24.345 99.472 24.327 99.61 24.327H102.445C102.566 24.327 102.583 24.31 102.583 24.172V20.904L104.572 20.869C104.572 20.869 105.834 22.858 106.422 23.982C106.577 24.293 106.647 24.327 106.786 24.327H109.846C110.038 24.327 110.089 24.207 109.881 23.861V23.861ZM105.766 16.788C105.766 17.792 105.248 18.483 104.314 18.517L102.584 18.569V15.18H104.297C105.299 15.18 105.766 15.872 105.766 16.788V16.788ZM120.086 20.229C119.671 21.112 118.841 21.682 117.665 21.682C116.212 21.682 114.778 20.697 114.778 18.535C114.778 16.685 115.884 15.319 117.614 15.319C118.808 15.319 119.638 15.855 120.139 16.893C120.174 16.98 120.191 17.015 120.294 16.98L122.87 15.976C122.94 15.941 123.009 15.872 122.923 15.665C122.145 13.901 120.397 12.362 117.545 12.362C114.156 12.362 111.493 14.973 111.493 18.518C111.493 21.838 113.949 24.623 117.631 24.623C118.787 24.6324 119.92 24.2968 120.884 23.6591C121.848 23.0213 122.6 22.1105 123.044 21.043C123.079 20.939 123.061 20.853 122.889 20.818L120.294 20.109C120.155 20.074 120.138 20.143 120.086 20.229V20.229ZM133.707 15.104C133.736 15.0535 133.75 14.996 133.747 14.938V12.828C133.747 12.621 133.73 12.604 133.557 12.604H125.741C125.568 12.604 125.586 12.621 125.586 12.777V24.086C125.586 24.293 125.603 24.328 125.776 24.328H133.678C133.852 24.328 133.869 24.293 133.869 24.086V21.855C133.872 21.7989 133.867 21.7426 133.854 21.688H128.596V19.649H133.576C133.617 19.62 133.627 19.562 133.627 19.434V17.325C133.632 17.2635 133.624 17.2016 133.605 17.143H128.596V15.104H133.707V15.104ZM140.594 21.578H140.592V12.759C140.592 12.621 140.575 12.604 140.437 12.604H137.636C137.48 12.604 137.48 12.587 137.48 12.759V24.172C137.48 24.345 137.48 24.327 137.636 24.327H144.95C145.089 24.327 145.089 24.31 145.089 24.172V21.665C145.089 21.629 145.079 21.616 145.075 21.593H140.595V21.578H140.594ZM158.334 18.5C158.334 15.111 155.689 12.362 152.196 12.362C148.703 12.362 146.057 15.111 146.057 18.5C146.057 21.889 148.704 24.622 152.196 24.622C155.689 24.622 158.334 21.889 158.334 18.5ZM155.101 18.5C155.101 20.282 154.029 21.665 152.196 21.665C150.329 21.665 149.29 20.282 149.29 18.5C149.29 16.719 150.328 15.318 152.196 15.318C154.029 15.318 155.101 16.719 155.101 18.5ZM170.788 24.631V12.635C170.765 12.613 170.725 12.603 170.65 12.603H168.021C167.883 12.603 167.883 12.62 167.883 12.81V17.998C167.883 17.998 163.647 14.072 161.174 12.309C161.093 12.26 160.998 12.248 160.988 12.407V24.165C160.992 24.233 161.042 24.327 161.157 24.327H163.768C163.923 24.327 163.923 24.327 163.923 24.172V18.881C163.923 18.881 168.004 22.633 170.616 24.588C170.708 24.656 170.759 24.664 170.788 24.631ZM184.935 24.086C183.033 20.265 180.681 15.458 179.021 12.224C179.004 12.189 178.624 12.172 178.606 12.224C177.032 15.163 174.525 20.265 172.726 24.086C172.657 24.259 172.674 24.328 172.813 24.328H175.683C175.908 24.328 175.942 24.276 175.994 24.138C176.168 23.724 176.392 23.135 176.599 22.651H180.784C180.957 23.084 181.217 23.724 181.424 24.19C181.476 24.311 181.545 24.328 181.631 24.328H184.865C185.021 24.327 185.038 24.31 184.935 24.086V24.086ZM179.868 20.403H177.464L178.64 17.774L179.868 20.403Z" fill="white"/>
</g>
<defs>
<clipPath id="clip0_13_18">
<rect width="185" height="25" fill="white"/>
</clipPath>
</defs>
</svg>
