<?xml version="1.0" encoding="UTF-8" ?>
<!DOCTYPE svg PUBLIC "-//W3C//DTD SVG 1.1//EN" "http://www.w3.org/Graphics/SVG/1.1/DTD/svg11.dtd">
<svg width="1507pt" height="1048pt" viewBox="0 0 1507 1048" version="1.1" xmlns="http://www.w3.org/2000/svg">
<g id="#e6e2e2ff">
</g>
<g id="#0f0b0fff">
<path fill="#0f0b0f" opacity="1.00" d=" M 303.39 288.84 C 305.86 288.68 308.34 288.60 310.82 288.56 L 310.53 287.70 C 321.83 287.15 333.16 287.16 344.47 287.58 C 344.45 287.82 344.43 288.30 344.41 288.54 C 348.22 288.58 352.07 288.47 355.83 289.22 C 357.26 289.54 358.69 289.89 360.11 290.29 C 362.16 290.39 364.21 290.50 366.26 290.68 C 369.79 292.51 373.87 292.36 377.73 292.58 C 377.62 292.87 377.38 293.46 377.26 293.75 C 379.74 294.06 382.23 294.40 384.73 294.63 L 384.31 295.39 C 386.74 295.65 389.14 296.19 391.55 296.59 C 391.73 297.17 392.09 298.34 392.27 298.92 C 392.37 301.34 392.22 303.80 392.78 306.18 C 394.18 310.65 393.52 315.40 393.86 320.01 C 394.23 324.48 394.55 328.95 394.64 333.43 C 394.87 333.44 395.34 333.46 395.57 333.46 C 394.97 339.59 396.86 345.54 396.73 351.65 C 395.22 351.91 393.72 352.20 392.22 352.47 C 392.30 352.70 392.47 353.18 392.55 353.41 C 391.74 353.41 390.12 353.42 389.31 353.42 L 389.72 352.65 C 388.39 352.21 387.09 351.73 385.78 351.28 C 385.40 348.92 385.04 346.56 384.71 344.21 C 384.47 344.33 383.98 344.59 383.74 344.72 C 383.35 342.57 382.86 340.44 382.41 338.31 L 381.73 338.62 C 380.98 336.49 380.17 334.39 379.41 332.27 L 378.63 332.68 C 378.31 331.28 377.99 329.87 377.67 328.48 C 377.45 328.54 377.02 328.66 376.80 328.72 C 376.22 327.74 375.62 326.77 375.01 325.82 C 374.37 324.83 373.73 323.82 373.12 322.82 C 372.02 321.59 370.93 320.35 369.81 319.14 C 368.88 318.09 367.94 317.05 367.01 316.00 C 366.24 315.46 365.48 314.93 364.72 314.41 C 362.84 312.87 360.87 311.44 358.87 310.08 C 356.84 309.02 354.78 308.02 352.64 307.22 C 352.65 307.06 352.67 306.73 352.68 306.57 C 350.76 306.17 348.89 305.60 347.08 304.86 C 342.66 302.87 337.62 303.29 333.19 301.48 C 327.52 301.16 321.84 301.28 316.17 301.40 L 316.77 302.41 C 313.17 302.45 309.62 302.96 306.08 303.49 L 306.45 304.37 C 304.77 304.44 303.09 304.51 301.42 304.58 L 301.42 305.34 C 299.69 305.68 297.97 306.09 296.26 306.48 L 296.66 307.31 C 294.63 307.64 292.48 307.88 290.96 309.43 C 289.77 309.84 288.60 310.25 287.41 310.65 L 287.50 311.61 C 287.15 311.61 286.46 311.61 286.11 311.60 C 284.92 312.37 283.71 313.09 282.49 313.80 L 282.86 314.52 C 281.66 314.83 280.47 315.14 279.29 315.46 L 279.73 316.16 C 278.85 316.75 277.98 317.34 277.10 317.93 C 276.03 318.91 274.98 319.92 273.93 320.92 C 273.21 321.49 272.48 322.06 271.74 322.62 C 271.06 323.36 270.37 324.10 269.68 324.84 C 269.10 325.54 268.53 326.25 267.95 326.95 C 266.94 327.98 265.94 329.02 264.92 330.05 C 264.37 330.95 263.83 331.85 263.30 332.77 L 262.78 332.32 C 262.20 334.08 261.40 335.81 259.87 336.94 C 259.34 338.19 258.83 339.45 258.34 340.72 L 257.54 340.29 C 257.13 341.77 256.70 343.25 256.32 344.75 C 255.99 344.67 255.33 344.51 255.00 344.43 C 254.87 345.45 254.63 347.49 254.51 348.51 C 254.19 348.49 253.55 348.44 253.23 348.42 C 253.34 348.93 253.55 349.96 253.66 350.47 L 252.75 350.43 C 252.27 352.18 251.74 353.92 251.29 355.69 L 250.43 355.27 C 250.41 355.98 250.37 357.40 250.34 358.12 C 249.78 359.74 249.47 361.50 248.46 362.93 C 247.72 366.63 247.18 370.38 245.72 373.89 C 245.61 376.13 245.48 378.37 245.37 380.62 C 244.99 380.62 244.22 380.62 243.83 380.62 C 243.49 392.28 243.53 403.94 243.56 415.60 L 244.42 415.39 C 244.44 418.42 244.55 421.45 244.59 424.48 L 245.45 424.50 C 245.52 426.83 245.62 429.17 245.65 431.51 L 246.35 431.50 C 246.49 433.92 246.64 436.36 246.98 438.77 C 248.90 440.54 248.33 443.38 248.71 445.72 L 249.67 445.01 C 250.01 446.85 250.35 448.69 250.62 450.55 C 250.79 450.51 251.12 450.43 251.29 450.39 C 252.10 453.16 252.97 455.93 253.86 458.69 L 254.56 458.29 C 254.95 460.09 255.36 461.89 255.70 463.72 C 256.07 463.63 256.81 463.45 257.17 463.36 C 257.23 464.15 257.36 465.73 257.42 466.53 L 258.24 466.24 C 258.99 467.95 259.83 469.63 260.73 471.28 C 262.46 473.41 263.96 475.70 265.40 478.04 C 266.27 479.03 267.12 480.03 267.98 481.05 C 268.79 482.08 269.65 483.06 270.55 484.04 C 270.59 484.38 270.67 485.07 270.71 485.41 C 271.20 485.40 272.17 485.38 272.65 485.38 C 272.60 485.81 272.50 486.67 272.45 487.10 C 272.82 487.21 273.56 487.42 273.93 487.53 C 274.98 488.67 275.99 489.86 277.02 491.04 C 277.96 491.59 278.88 492.17 279.79 492.79 L 279.28 493.46 C 280.45 493.83 281.63 494.20 282.81 494.57 L 282.35 495.30 C 283.66 496.07 284.95 496.87 286.23 497.72 C 287.40 498.45 288.63 499.08 289.87 499.72 L 289.41 500.30 C 291.03 500.85 292.65 501.44 294.10 502.38 C 295.22 502.80 296.35 503.20 297.49 503.61 L 297.42 504.51 C 298.20 504.50 299.76 504.47 300.54 504.45 C 300.54 504.71 300.55 505.24 300.55 505.50 C 302.81 506.02 305.09 506.50 307.40 506.85 C 307.36 507.17 307.29 507.81 307.26 508.12 C 308.39 508.11 310.67 508.09 311.80 508.08 C 311.70 508.39 311.51 509.02 311.41 509.33 C 320.67 509.85 329.91 510.39 339.17 509.53 C 342.07 508.00 345.43 507.95 348.61 507.50 L 348.15 506.63 C 349.74 506.26 351.33 505.88 352.93 505.52 C 353.84 504.90 354.75 504.28 355.66 503.67 C 357.00 503.25 358.34 502.80 359.68 502.37 L 359.30 501.60 C 360.57 501.19 361.85 500.78 363.13 500.38 C 365.27 498.42 367.47 496.51 369.80 494.78 C 370.51 494.15 371.23 493.51 371.94 492.87 C 372.78 492.08 373.62 491.28 374.46 490.48 C 375.22 489.59 375.97 488.68 376.72 487.79 C 379.27 484.79 381.49 481.55 383.77 478.36 C 385.65 475.40 387.19 472.25 388.90 469.20 C 389.84 467.68 390.33 465.97 390.74 464.26 C 390.94 464.37 391.33 464.60 391.52 464.72 C 392.05 462.57 392.28 460.08 394.40 458.87 C 394.46 458.48 394.58 457.72 394.63 457.34 C 396.66 457.33 398.70 457.38 400.74 457.48 C 400.66 457.87 400.50 458.66 400.42 459.05 C 401.18 459.21 402.68 459.51 403.44 459.66 C 403.32 461.40 403.10 463.14 402.68 464.85 C 402.99 469.80 400.76 474.36 400.49 479.25 C 398.85 481.68 398.91 484.71 398.57 487.51 C 398.33 487.47 397.87 487.39 397.64 487.35 C 397.47 490.93 395.94 494.23 395.22 497.71 L 394.59 497.33 C 394.22 499.18 393.78 501.03 393.39 502.89 L 392.51 502.19 C 392.15 504.04 391.78 505.89 391.42 507.74 L 390.77 507.36 C 390.28 508.71 389.65 510.02 388.81 511.20 C 388.68 511.73 388.43 512.79 388.30 513.33 C 386.66 513.39 385.02 513.45 383.39 513.50 C 383.42 513.75 383.49 514.27 383.53 514.52 C 381.43 514.79 379.34 515.10 377.26 515.37 C 377.39 515.62 377.64 516.12 377.77 516.38 C 375.34 516.70 372.92 517.12 370.50 517.48 C 370.56 517.74 370.69 518.25 370.75 518.51 C 369.21 518.58 367.67 518.66 366.14 518.76 C 363.37 520.13 360.33 520.63 357.26 520.52 L 357.51 521.46 C 353.73 521.73 349.97 522.23 346.20 522.46 C 346.31 522.72 346.53 523.24 346.64 523.50 C 336.44 523.44 326.25 525.09 316.07 523.84 C 311.10 523.31 305.77 524.60 301.09 522.42 C 297.89 522.12 294.70 521.71 291.51 521.44 L 291.72 520.50 C 290.19 520.44 288.67 520.37 287.15 520.30 C 285.93 519.89 284.70 519.51 283.47 519.16 L 283.52 518.74 C 281.55 518.65 279.51 518.60 277.91 517.32 C 276.40 517.01 274.88 516.73 273.37 516.47 C 273.46 516.23 273.65 515.75 273.75 515.52 C 271.70 515.32 269.62 514.96 268.02 513.57 C 267.54 513.51 266.58 513.37 266.10 513.30 C 264.62 512.50 263.08 511.81 261.52 511.21 L 261.86 510.43 C 260.98 510.37 259.23 510.23 258.35 510.16 C 258.40 509.83 258.49 509.15 258.53 508.82 C 256.95 508.32 255.37 507.81 253.96 506.94 C 252.51 506.25 251.11 505.45 249.82 504.51 C 249.62 504.51 249.23 504.50 249.03 504.49 C 247.81 503.50 246.57 502.51 245.37 501.51 C 244.43 500.94 243.50 500.37 242.59 499.79 C 240.64 498.34 238.78 496.79 236.96 495.19 C 236.22 494.56 235.48 493.95 234.72 493.36 C 232.29 491.08 229.98 488.67 227.74 486.21 C 227.13 485.42 226.51 484.65 225.87 483.91 C 225.12 483.01 224.38 482.11 223.66 481.22 C 222.58 479.91 221.52 478.60 220.53 477.24 C 219.49 475.28 218.06 473.57 216.61 471.91 C 216.59 471.72 216.54 471.34 216.52 471.15 C 215.69 469.77 214.88 468.39 214.07 467.01 C 213.48 465.82 212.91 464.63 212.37 463.44 C 212.17 463.51 211.76 463.66 211.56 463.73 C 211.27 462.22 210.93 460.72 210.62 459.23 C 210.39 459.26 209.93 459.33 209.69 459.36 C 209.49 458.54 209.09 456.88 208.89 456.06 C 207.27 452.94 205.97 449.67 205.47 446.19 C 205.22 446.31 204.71 446.57 204.46 446.70 C 204.39 445.10 204.33 443.52 204.26 441.93 C 203.13 439.44 202.30 436.82 202.24 434.07 C 201.82 432.38 201.50 430.68 201.22 428.97 C 200.82 426.89 200.57 424.79 200.42 422.69 C 198.47 412.75 199.70 402.48 199.70 392.41 L 200.55 392.85 C 200.60 390.62 200.68 388.38 200.80 386.16 C 201.34 384.50 201.80 382.82 202.35 381.18 C 202.46 379.16 202.55 377.14 202.63 375.12 L 203.45 375.74 C 203.90 373.31 204.40 370.88 204.73 368.43 C 204.97 368.53 205.44 368.72 205.68 368.82 C 205.96 367.04 206.27 365.26 206.52 363.48 C 206.71 363.52 207.08 363.59 207.27 363.63 C 207.72 362.09 208.19 360.56 208.65 359.03 C 209.03 358.02 209.42 357.03 209.82 356.03 C 212.76 350.65 215.37 345.10 218.70 339.94 C 219.43 338.93 220.19 337.94 220.93 336.93 C 222.60 334.76 224.33 332.63 225.83 330.33 L 226.35 330.87 C 226.80 329.88 227.26 328.89 227.71 327.91 C 228.47 327.16 229.23 326.41 229.99 325.65 L 230.70 325.60 L 230.36 324.86 C 231.18 324.14 231.99 323.41 232.80 322.69 C 233.48 322.06 234.15 321.42 234.82 320.77 C 236.57 319.18 238.39 317.68 240.25 316.22 C 242.18 314.63 244.13 313.07 246.20 311.68 C 247.29 310.90 248.38 310.11 249.46 309.32 C 250.86 308.57 252.28 307.89 253.72 307.23 L 253.15 306.63 C 254.25 306.25 255.35 305.86 256.44 305.47 C 258.35 304.13 260.44 303.09 262.61 302.24 L 262.22 301.62 C 263.79 301.28 265.35 300.92 266.93 300.60 L 266.40 299.61 C 268.16 299.26 269.90 298.86 271.66 298.47 L 271.24 297.75 C 273.25 297.53 275.15 296.81 276.90 295.80 C 277.42 295.70 278.45 295.51 278.97 295.41 C 283.37 293.90 287.78 291.92 292.54 292.09 C 292.51 291.73 292.44 290.99 292.41 290.63 C 294.60 290.53 296.79 290.43 298.99 290.36 C 300.45 289.85 301.93 289.38 303.39 288.84 Z" />
<path fill="#0f0b0f" opacity="1.00" d=" M 509.31 290.84 C 511.26 288.64 513.49 286.62 516.66 287.35 L 516.43 288.00 C 517.39 288.94 518.33 289.91 519.22 290.93 C 519.71 293.21 520.23 295.49 520.62 297.81 L 521.44 297.17 C 521.75 299.36 522.15 301.54 522.50 303.73 L 523.33 303.18 C 523.61 305.18 524.04 307.15 524.61 309.10 C 525.20 310.55 525.49 312.07 525.74 313.61 L 526.27 313.29 C 526.70 317.96 529.21 322.10 529.52 326.80 C 529.77 326.70 530.26 326.49 530.51 326.39 C 530.56 327.29 530.67 329.09 530.72 329.99 C 531.68 332.04 532.46 334.19 532.75 336.45 L 533.36 336.29 C 533.67 338.44 534.15 340.56 534.55 342.70 C 534.77 342.63 535.22 342.51 535.44 342.44 C 535.72 344.59 536.12 346.73 536.47 348.88 L 537.28 348.15 C 537.50 349.70 537.75 351.26 538.09 352.81 C 539.21 355.89 540.31 358.97 541.42 362.06 C 541.38 362.51 541.28 363.40 541.23 363.85 L 542.30 363.38 C 542.56 365.43 542.49 367.70 543.98 369.34 C 544.40 370.87 544.75 372.43 545.17 373.97 C 545.29 375.17 545.41 376.38 545.53 377.59 C 545.76 377.57 546.20 377.53 546.43 377.51 C 546.58 378.34 546.90 379.98 547.05 380.81 C 547.49 381.81 547.94 382.82 548.40 383.83 C 548.42 384.82 548.44 385.81 548.47 386.81 L 549.40 386.42 C 549.72 388.32 550.12 390.22 550.51 392.11 C 551.77 394.15 552.33 396.51 552.53 398.88 L 553.20 398.46 C 553.55 400.37 554.05 402.26 554.66 404.11 C 555.16 405.59 555.44 407.11 555.71 408.66 C 555.90 408.57 556.26 408.40 556.44 408.31 C 556.67 409.89 556.92 411.47 557.20 413.06 C 558.87 415.24 559.06 418.06 559.55 420.68 L 560.46 420.20 C 560.51 421.62 560.56 423.04 560.62 424.48 L 561.41 424.45 C 561.80 426.29 562.28 428.11 562.77 429.94 C 563.96 431.96 564.24 434.30 564.48 436.60 C 564.71 436.47 565.16 436.23 565.38 436.11 C 566.02 440.55 567.63 444.76 569.27 448.92 C 569.30 449.62 569.37 451.02 569.40 451.72 C 569.66 451.67 570.19 451.58 570.45 451.53 C 570.72 453.59 571.05 455.63 571.35 457.69 C 571.61 457.57 572.13 457.32 572.39 457.20 C 572.66 459.37 573.05 461.54 573.40 463.72 C 573.60 463.65 574.00 463.51 574.20 463.44 C 574.46 464.97 574.79 466.48 575.20 467.99 C 575.80 469.80 576.32 471.64 576.72 473.52 L 577.52 473.31 C 577.62 475.07 577.74 476.84 577.87 478.62 C 578.23 478.55 578.95 478.41 579.31 478.34 C 579.55 480.81 580.00 483.25 580.45 485.69 C 580.64 485.61 581.02 485.45 581.21 485.36 C 581.63 487.42 582.21 489.47 582.67 491.53 C 582.94 491.58 583.48 491.68 583.75 491.74 L 583.01 493.65 L 584.27 493.34 C 584.60 495.12 585.01 496.89 585.44 498.66 C 585.64 498.64 586.03 498.60 586.23 498.57 C 586.85 499.65 587.51 500.71 588.19 501.76 C 589.67 502.98 591.17 504.20 592.61 505.50 C 594.59 505.97 596.59 506.41 598.61 506.79 C 598.50 507.02 598.29 507.48 598.18 507.70 C 601.32 507.99 604.46 508.36 607.61 508.64 C 607.55 508.80 607.42 509.13 607.35 509.30 C 609.56 509.65 610.33 511.53 610.87 513.45 L 611.48 513.37 C 611.44 514.52 611.41 515.68 611.40 516.85 C 610.40 517.97 609.91 520.10 608.03 519.70 C 602.34 519.45 596.56 519.92 590.96 518.80 C 577.62 518.63 564.28 518.55 550.95 518.80 C 543.99 520.03 536.85 518.86 529.93 520.33 C 529.31 520.03 528.06 519.45 527.44 519.16 C 526.54 516.38 526.27 513.44 526.68 510.55 C 527.87 509.00 530.11 509.81 531.78 509.44 L 531.15 508.49 C 534.68 508.34 538.19 507.98 541.70 507.56 L 541.22 506.79 C 541.88 506.47 543.21 505.84 543.87 505.53 L 544.40 505.67 C 544.62 504.45 544.85 503.23 545.11 502.02 C 544.84 500.28 544.65 498.53 544.48 496.79 C 543.14 494.13 542.99 491.11 542.56 488.23 C 542.34 488.36 541.89 488.62 541.67 488.75 C 541.35 486.61 540.90 484.51 540.51 482.40 C 540.27 482.43 539.79 482.48 539.55 482.50 C 539.53 481.48 539.49 479.42 539.47 478.40 L 538.55 478.52 C 538.29 476.78 537.92 475.06 537.57 473.35 C 537.33 473.37 536.87 473.40 536.64 473.42 C 536.31 471.55 535.95 469.70 535.63 467.84 C 535.08 466.61 534.51 465.39 533.95 464.18 C 533.75 462.88 533.58 461.58 533.44 460.29 L 532.59 460.73 C 532.54 460.04 532.43 458.65 532.38 457.95 C 531.73 456.30 531.15 454.61 530.51 452.96 C 530.59 452.58 530.75 451.82 530.83 451.45 L 529.69 451.79 C 529.43 449.55 529.00 447.35 528.59 445.14 C 528.39 445.26 527.97 445.48 527.77 445.60 C 527.38 443.49 526.86 441.42 526.41 439.33 L 525.69 439.76 C 525.21 438.63 524.74 437.49 524.27 436.37 C 521.91 435.71 519.48 435.37 517.03 435.42 C 502.03 435.41 487.02 435.43 472.02 435.41 C 469.44 435.38 466.86 435.66 464.37 436.32 C 463.98 438.09 463.59 439.86 463.27 441.65 L 462.71 441.30 C 461.89 444.50 461.00 447.69 460.11 450.88 C 459.71 451.62 459.32 452.36 458.93 453.10 C 458.66 454.94 458.46 456.79 458.28 458.65 C 457.93 458.58 457.25 458.43 456.91 458.35 C 456.75 460.16 456.62 461.98 456.51 463.80 L 455.67 463.36 C 454.92 466.73 453.92 470.05 453.07 473.40 L 452.34 473.21 C 452.35 473.61 452.37 474.42 452.37 474.82 C 451.87 476.46 451.53 478.16 451.28 479.86 L 450.42 479.28 C 450.06 481.39 449.69 483.50 449.41 485.63 C 449.20 485.53 448.80 485.33 448.59 485.23 C 447.90 488.98 446.74 492.62 446.15 496.40 C 445.98 496.44 445.64 496.52 445.46 496.56 C 445.48 499.18 444.88 502.01 446.33 504.39 L 446.18 505.50 C 448.03 506.00 449.91 506.43 451.82 506.70 L 451.23 507.58 C 455.00 507.90 458.76 508.25 462.53 508.51 C 462.45 508.75 462.28 509.23 462.20 509.47 C 463.83 509.62 466.18 509.65 466.24 511.85 C 466.30 514.59 466.90 519.76 462.90 519.72 C 441.08 518.89 419.24 519.18 397.42 519.58 C 396.39 516.41 396.46 513.06 397.49 509.91 C 401.77 508.24 406.37 507.98 410.91 507.65 L 410.19 506.72 C 412.52 506.59 414.81 506.04 416.88 504.91 C 418.47 503.48 419.94 501.93 421.18 500.18 C 421.71 498.91 422.28 497.67 422.88 496.44 L 423.42 496.62 C 424.36 494.27 425.19 491.89 425.82 489.44 C 426.05 489.51 426.52 489.65 426.75 489.72 C 427.05 488.00 427.34 486.29 427.63 484.58 C 427.89 484.62 428.40 484.70 428.66 484.75 C 428.91 483.24 429.21 481.75 429.47 480.25 L 430.22 480.55 C 430.64 477.33 432.39 474.48 432.75 471.24 C 432.98 471.35 433.44 471.56 433.67 471.66 C 433.95 469.84 434.27 468.04 434.53 466.23 C 434.80 466.33 435.34 466.52 435.61 466.61 C 435.96 464.55 436.35 462.50 436.67 460.44 L 437.77 460.60 C 437.70 460.27 437.57 459.62 437.51 459.29 C 438.54 457.11 439.35 454.82 439.68 452.42 C 439.88 452.48 440.29 452.60 440.49 452.66 C 440.89 450.52 441.35 448.40 441.71 446.26 L 442.45 446.92 C 443.51 441.87 445.46 437.07 447.48 432.34 C 447.91 430.65 448.33 428.96 448.71 427.26 L 449.51 427.73 C 449.86 425.67 450.26 423.63 450.60 421.58 C 450.80 421.60 451.21 421.66 451.41 421.68 C 451.79 419.95 452.25 418.24 452.61 416.50 L 453.46 416.56 C 453.47 415.73 453.50 414.09 453.51 413.27 L 454.39 413.68 C 454.78 411.60 455.26 409.54 455.66 407.46 C 455.89 407.55 456.34 407.73 456.57 407.83 C 456.96 405.66 457.40 403.50 457.72 401.32 L 458.46 401.81 C 459.54 396.87 462.46 392.48 462.75 387.35 C 463.06 387.43 463.70 387.61 464.01 387.70 C 464.16 385.88 464.33 384.08 464.50 382.28 L 465.35 382.76 C 465.83 380.80 466.40 378.86 467.30 377.06 C 467.45 375.87 467.60 374.68 467.74 373.50 C 468.08 373.52 468.76 373.56 469.10 373.58 C 469.22 371.84 469.37 370.11 469.51 368.38 C 469.82 368.48 470.44 368.67 470.75 368.77 C 470.98 367.02 471.22 365.28 471.46 363.54 C 471.70 363.59 472.17 363.71 472.41 363.76 C 472.55 361.71 473.07 359.71 474.26 358.01 C 474.35 357.12 474.52 355.32 474.61 354.43 C 474.85 354.50 475.35 354.65 475.59 354.72 C 475.93 352.96 476.29 351.20 476.62 349.44 C 476.84 349.53 477.28 349.72 477.50 349.82 C 477.79 347.49 478.32 345.18 479.41 343.09 C 479.87 341.53 480.34 339.96 480.76 338.39 L 481.52 338.44 C 481.50 337.73 481.46 336.31 481.44 335.60 C 481.70 335.62 482.23 335.65 482.49 335.66 C 482.92 333.53 483.41 331.41 483.75 329.27 L 484.63 329.87 C 485.11 327.44 485.55 324.99 485.82 322.53 C 486.15 322.55 486.83 322.58 487.17 322.60 C 487.30 321.37 487.45 320.15 487.60 318.93 C 487.93 318.08 488.59 316.36 488.92 315.51 L 489.36 315.74 C 489.98 311.77 490.67 307.80 490.60 303.76 C 492.29 303.28 493.97 302.74 495.67 302.27 L 495.31 301.77 C 496.85 301.22 498.44 300.69 499.81 299.75 C 500.48 299.12 501.15 298.48 501.83 297.85 C 502.97 296.98 504.11 296.09 505.27 295.23 C 505.91 294.59 506.56 293.97 507.23 293.35 C 508.04 292.60 508.87 291.86 509.71 291.14 L 509.31 290.84 M 493.96 343.79 L 494.04 343.97 C 494.42 344.27 495.20 344.89 495.59 345.19 C 495.41 345.28 495.06 345.47 494.88 345.56 C 493.51 347.30 493.54 349.57 493.26 351.66 C 492.94 351.56 492.30 351.37 491.98 351.27 C 491.78 353.05 491.59 354.84 491.42 356.64 L 490.63 356.33 C 489.75 359.45 488.61 362.51 488.22 365.75 L 487.38 365.29 C 487.06 366.86 486.74 368.42 486.41 369.99 C 484.34 374.05 483.80 378.79 481.71 382.91 C 481.59 383.62 481.34 385.03 481.22 385.74 C 480.21 387.76 479.47 389.91 478.44 391.93 C 478.06 393.81 477.69 395.69 477.34 397.59 C 477.11 397.51 476.64 397.36 476.40 397.29 C 476.38 398.02 476.34 399.48 476.32 400.21 C 475.74 401.41 475.20 402.64 474.67 403.87 C 474.51 404.84 474.35 405.81 474.18 406.79 C 472.84 408.12 472.78 410.06 472.47 411.81 C 472.20 411.70 471.66 411.48 471.38 411.37 C 471.19 413.99 471.06 416.64 471.39 419.26 C 486.41 419.57 501.43 419.45 516.45 419.32 L 516.35 418.47 C 517.38 418.43 518.42 418.39 519.47 418.36 C 519.53 416.43 519.55 414.49 519.55 412.56 C 519.31 412.61 518.84 412.69 518.60 412.73 C 518.01 408.95 516.28 405.42 516.15 401.56 C 515.84 401.59 515.23 401.64 514.92 401.67 C 514.74 399.90 514.58 398.13 514.42 396.38 C 514.17 396.48 513.68 396.70 513.43 396.80 C 513.07 394.78 512.92 392.61 511.59 390.94 C 511.43 389.90 511.28 388.86 511.14 387.82 C 509.67 385.67 509.38 383.10 509.21 380.57 C 508.87 380.59 508.19 380.63 507.86 380.65 C 507.87 379.81 507.90 378.13 507.91 377.29 C 507.61 377.33 507.01 377.41 506.71 377.45 C 506.35 375.08 505.92 372.72 505.52 370.36 L 504.51 370.67 C 504.46 369.39 504.40 368.12 504.36 366.86 C 503.89 365.92 503.44 364.99 502.99 364.06 C 502.76 362.81 502.55 361.56 502.36 360.31 L 501.56 360.67 C 501.39 358.93 501.23 357.19 501.09 355.46 C 500.74 355.37 500.02 355.20 499.66 355.12 C 499.48 353.20 499.30 351.28 499.14 349.37 C 498.82 349.40 498.17 349.46 497.85 349.49 C 497.45 347.45 496.99 345.43 496.47 343.44 C 495.85 343.52 494.59 343.70 493.96 343.79 Z" />
<path fill="#0f0b0f" opacity="1.00" d=" M 673.90 288.66 C 675.52 288.62 677.15 288.59 678.78 288.59 L 678.60 287.73 C 685.40 287.26 692.22 287.23 699.03 287.30 C 703.42 287.16 707.57 289.02 711.99 288.73 C 713.32 289.25 714.66 289.74 716.00 290.29 C 717.90 290.40 719.81 290.50 721.73 290.56 L 721.34 291.43 C 724.51 291.94 727.68 292.41 730.90 292.58 L 730.17 293.48 C 732.60 293.81 735.02 294.26 737.45 294.68 C 737.60 296.32 737.74 297.96 737.90 299.62 C 738.25 299.60 738.94 299.56 739.29 299.54 C 739.40 301.39 739.53 303.24 739.66 305.09 C 740.21 307.08 740.61 309.10 741.15 311.10 C 741.18 315.45 742.81 319.61 742.71 323.98 C 742.51 330.22 744.31 336.54 742.75 342.72 C 739.36 343.39 735.85 343.63 732.53 342.54 C 732.46 341.36 732.40 340.18 732.35 339.00 C 731.96 338.49 731.20 337.47 730.82 336.96 C 730.71 335.69 730.62 334.43 730.54 333.17 L 729.56 333.75 C 729.28 332.00 728.97 330.26 728.69 328.52 C 728.45 328.57 727.96 328.67 727.72 328.71 C 727.23 326.99 726.55 325.33 725.45 323.92 C 725.44 323.71 725.43 323.30 725.42 323.09 C 724.61 321.90 723.85 320.68 723.13 319.45 L 722.81 319.75 C 722.16 318.51 721.49 317.30 720.73 316.14 C 720.13 315.43 719.55 314.72 718.97 314.00 C 717.87 313.27 716.78 312.50 715.69 311.78 C 715.54 311.23 715.22 310.14 715.07 309.60 C 714.60 309.66 713.66 309.77 713.19 309.83 L 713.67 308.57 C 712.49 308.20 711.31 307.84 710.15 307.49 L 710.65 306.59 C 709.20 306.15 707.76 305.68 706.33 305.25 L 706.52 304.78 C 703.18 303.53 699.73 302.50 696.15 302.39 L 696.77 301.39 C 692.46 301.35 688.14 301.19 683.84 301.48 C 681.37 302.56 678.71 303.04 676.10 303.59 C 674.97 304.04 673.84 304.47 672.71 304.89 L 672.71 305.27 C 670.56 306.10 668.61 307.32 666.68 308.54 C 664.23 310.87 661.96 313.37 659.79 315.95 C 658.63 319.07 657.02 321.99 655.87 325.11 C 653.79 332.44 654.00 340.20 655.61 347.59 C 655.83 347.58 656.25 347.57 656.46 347.56 C 656.71 349.30 657.02 351.05 657.33 352.79 L 658.17 352.18 C 659.03 355.33 661.01 357.97 662.71 360.72 L 663.10 360.60 C 664.64 362.88 666.30 365.12 668.42 366.92 L 668.31 367.62 L 669.55 367.37 L 669.42 368.15 C 669.86 368.51 670.75 369.24 671.19 369.60 C 671.38 369.57 671.78 369.52 671.97 369.49 C 672.66 370.52 673.57 371.32 674.70 371.89 L 674.34 372.28 C 679.16 375.33 683.91 378.50 688.89 381.29 C 689.91 381.89 690.96 382.50 692.00 383.11 C 693.83 384.18 695.73 385.13 697.74 385.82 L 697.13 386.58 C 698.38 386.89 699.63 387.20 700.89 387.51 L 700.59 388.77 C 700.95 388.72 701.68 388.61 702.04 388.56 C 703.56 389.51 705.18 390.29 706.81 391.07 C 707.79 391.68 708.78 392.28 709.80 392.87 L 709.23 393.45 C 710.39 393.83 711.55 394.22 712.73 394.61 L 712.47 395.18 C 713.73 395.98 714.97 396.83 716.22 397.68 C 717.30 398.44 718.45 399.15 719.61 399.83 C 719.60 400.02 719.58 400.40 719.57 400.59 C 720.70 401.32 721.83 402.10 722.95 402.87 C 723.57 403.62 724.20 404.37 724.83 405.14 C 725.59 405.76 726.37 406.40 727.14 407.05 C 728.08 408.18 729.00 409.33 729.91 410.51 L 730.28 410.19 C 730.85 411.19 731.46 412.21 732.07 413.20 C 732.91 414.10 733.76 414.99 734.63 415.88 L 734.37 416.02 C 735.31 417.18 736.08 418.44 736.83 419.75 L 737.20 419.26 C 737.71 420.54 738.26 421.83 739.16 422.92 C 740.05 424.61 740.85 426.36 741.66 428.11 C 743.34 431.40 745.02 434.81 744.99 438.62 C 745.32 438.58 746.00 438.50 746.34 438.46 C 746.43 440.61 746.55 442.75 746.75 444.90 C 747.21 446.48 747.46 448.12 747.60 449.77 L 748.27 449.51 C 748.13 454.99 748.70 460.51 747.70 465.93 C 747.45 467.32 747.12 468.69 746.75 470.05 C 746.64 471.64 746.56 473.21 746.51 474.81 L 745.67 474.27 C 745.29 477.11 744.96 480.08 743.48 482.60 C 743.07 483.98 742.69 485.37 742.35 486.78 L 741.28 486.65 C 741.31 486.99 741.39 487.67 741.43 488.01 C 740.47 489.57 739.71 491.22 738.95 492.88 C 738.31 493.81 737.69 494.76 737.09 495.72 L 736.53 495.32 C 736.14 496.23 735.75 497.15 735.37 498.08 C 733.52 500.00 731.66 501.93 729.95 503.98 C 728.83 504.99 727.71 505.99 726.60 506.99 L 726.59 507.24 C 724.72 508.49 722.94 509.85 721.17 511.22 C 720.19 511.89 719.22 512.57 718.27 513.26 C 715.11 514.81 711.98 516.40 708.91 518.11 C 707.93 518.39 706.96 518.67 706.00 518.96 C 704.18 519.75 702.27 520.38 700.30 520.64 L 700.62 521.32 C 696.29 521.82 691.98 522.56 687.62 522.79 C 687.66 523.04 687.74 523.52 687.78 523.77 C 684.82 523.72 681.86 523.81 678.92 524.13 C 672.01 524.79 665.14 523.28 658.23 523.80 C 658.27 523.53 658.36 522.99 658.40 522.72 C 652.27 522.68 646.32 521.28 640.54 519.36 L 640.53 518.67 C 639.35 518.59 638.19 518.51 637.03 518.42 C 635.89 516.90 633.87 516.86 632.23 516.34 L 632.75 515.66 C 629.19 514.88 626.06 512.96 622.96 511.14 C 622.12 510.48 621.29 509.85 620.45 509.23 C 620.06 508.24 619.68 507.25 619.32 506.26 L 618.52 506.58 C 618.46 505.98 618.34 504.78 618.28 504.18 C 617.35 502.32 616.73 500.34 616.32 498.32 L 615.62 498.78 C 615.45 496.85 615.27 494.91 614.84 493.03 C 614.65 491.08 614.51 489.13 614.41 487.19 L 613.47 487.87 C 613.24 481.99 612.07 476.18 612.48 470.27 L 611.52 470.75 C 611.55 466.26 611.49 461.78 611.43 457.30 L 612.06 457.38 C 613.41 454.56 616.77 454.46 619.49 454.45 C 620.74 455.73 621.99 457.04 623.19 458.39 C 623.64 461.04 624.58 463.58 625.72 466.02 C 626.35 467.40 626.95 468.79 627.56 470.19 C 629.00 472.96 630.40 475.75 631.73 478.57 L 632.72 478.34 C 632.63 478.81 632.45 479.76 632.36 480.24 L 633.11 480.43 C 633.81 481.47 634.53 482.51 635.27 483.53 C 635.68 484.45 636.09 485.37 636.51 486.30 C 638.47 488.41 640.35 490.59 642.06 492.92 C 642.73 493.59 643.42 494.27 644.12 494.94 C 645.69 496.66 647.33 498.33 649.12 499.84 C 650.44 500.86 651.78 501.89 653.08 502.97 C 654.12 503.56 655.17 504.16 656.22 504.78 C 657.86 505.77 659.66 506.44 661.54 506.85 C 661.46 507.09 661.30 507.58 661.22 507.82 C 662.99 508.03 664.77 508.22 666.55 508.42 C 666.48 508.71 666.33 509.29 666.25 509.58 C 673.07 509.85 679.90 509.87 686.72 509.59 C 686.64 509.32 686.50 508.78 686.43 508.52 C 688.55 508.25 690.67 507.93 692.80 507.64 L 692.22 506.85 C 694.30 506.27 696.29 505.41 698.19 504.39 C 700.09 502.90 701.93 501.35 703.87 499.91 C 705.87 497.58 708.07 495.26 708.74 492.16 L 709.52 492.79 C 709.90 491.32 710.30 489.86 710.67 488.39 L 711.49 488.64 C 711.51 487.62 711.53 485.57 711.55 484.54 C 711.76 484.56 712.20 484.58 712.41 484.60 C 714.09 477.66 713.13 470.48 713.28 463.42 C 712.92 463.43 712.18 463.43 711.82 463.44 C 711.69 461.55 711.54 459.66 711.38 457.79 C 710.42 456.08 709.79 454.22 709.39 452.31 C 709.24 452.35 708.94 452.43 708.79 452.46 C 708.29 451.19 707.71 449.96 707.04 448.79 C 705.65 446.13 703.94 443.67 702.15 441.27 L 701.34 441.63 C 701.28 441.08 701.17 439.97 701.12 439.42 C 700.69 439.47 699.83 439.57 699.41 439.62 C 699.42 439.13 699.44 438.14 699.45 437.65 C 698.95 437.62 697.95 437.57 697.45 437.54 C 697.50 437.10 697.60 436.23 697.65 435.80 C 697.10 435.75 696.01 435.65 695.46 435.61 L 695.77 434.80 C 694.59 433.92 693.42 433.04 692.25 432.18 C 691.30 431.49 690.33 430.82 689.38 430.17 L 689.69 429.78 C 688.47 429.10 687.28 428.43 686.10 427.73 C 684.63 426.82 683.20 425.84 681.86 424.78 C 680.63 424.25 679.41 423.73 678.19 423.25 L 678.74 422.78 C 677.37 422.12 676.00 421.45 674.82 420.50 C 674.62 420.49 674.22 420.48 674.01 420.47 C 672.72 419.57 671.41 418.71 670.12 417.84 C 668.86 417.28 667.60 416.72 666.37 416.16 C 666.42 415.86 666.51 415.28 666.56 414.98 C 665.75 414.85 664.12 414.60 663.30 414.47 L 663.73 413.79 C 662.32 412.97 660.94 412.14 659.54 411.33 C 658.42 410.50 657.29 409.70 656.18 408.89 C 655.26 408.31 654.35 407.73 653.44 407.17 L 653.81 406.74 C 652.88 406.17 651.96 405.59 651.05 405.02 C 649.39 403.35 647.68 401.73 645.95 400.15 C 645.25 399.45 644.55 398.76 643.85 398.07 C 642.30 396.33 640.64 394.70 638.97 393.09 C 637.59 391.41 636.22 389.73 634.89 388.03 C 634.60 387.59 634.01 386.71 633.71 386.27 C 632.54 384.49 631.37 382.71 630.34 380.85 C 629.75 379.88 629.18 378.90 628.64 377.93 C 627.65 375.91 626.92 373.78 625.87 371.81 C 625.66 370.87 625.47 369.93 625.30 369.00 C 624.04 366.21 623.56 363.16 623.50 360.13 L 622.57 360.94 C 622.24 355.63 622.24 350.30 622.30 344.99 C 622.16 340.30 624.43 336.01 624.69 331.36 L 625.49 331.59 C 625.51 330.16 625.54 328.73 625.57 327.31 L 626.55 327.69 C 626.94 325.87 627.35 324.06 627.69 322.24 C 627.92 322.29 628.39 322.39 628.62 322.44 C 629.42 320.14 630.60 318.00 631.70 315.84 C 632.15 315.47 633.04 314.74 633.49 314.37 C 633.85 313.32 634.22 312.26 634.60 311.22 L 635.19 311.69 C 636.29 310.02 637.60 308.49 639.01 307.06 C 639.82 306.28 640.64 305.51 641.46 304.72 C 642.23 303.97 643.01 303.22 643.77 302.45 L 644.08 302.64 C 644.70 302.14 645.94 301.14 646.56 300.64 C 646.59 300.46 646.63 300.11 646.65 299.93 C 648.08 299.26 649.52 298.59 650.87 297.77 C 653.60 296.04 656.46 294.43 659.64 293.68 C 659.60 293.41 659.52 292.86 659.49 292.59 C 661.21 292.42 662.93 292.25 664.67 292.10 C 664.63 291.75 664.53 291.06 664.49 290.71 C 666.34 290.56 668.19 290.42 670.06 290.31 C 671.33 289.75 672.62 289.21 673.90 288.66 Z" />
<path fill="#0f0b0f" opacity="1.00" d=" M 1205.39 287.53 C 1212.92 287.23 1220.46 287.21 1228.00 287.36 C 1230.00 287.35 1232.01 287.69 1233.90 288.41 C 1239.65 288.07 1245.01 290.58 1250.73 290.66 L 1250.24 291.51 C 1252.37 291.85 1254.49 292.23 1256.66 292.52 C 1256.56 292.75 1256.37 293.21 1256.27 293.44 C 1258.30 293.63 1260.34 294.01 1262.09 295.16 C 1263.01 295.51 1263.95 295.86 1264.91 296.19 C 1266.31 296.68 1267.70 297.23 1269.07 297.88 C 1270.35 298.84 1271.88 299.34 1273.43 299.77 C 1273.42 299.98 1273.39 300.41 1273.37 300.63 C 1276.18 301.60 1278.68 303.26 1281.31 304.64 C 1282.42 305.62 1283.57 306.58 1284.69 307.59 C 1285.67 307.95 1286.67 308.30 1287.69 308.66 L 1287.19 309.28 C 1288.03 309.85 1288.89 310.43 1289.77 311.02 C 1290.77 311.92 1291.78 312.83 1292.81 313.75 C 1293.53 314.47 1294.27 315.18 1295.05 315.88 C 1295.75 316.56 1296.47 317.24 1297.20 317.92 C 1298.65 319.72 1300.31 321.35 1302.03 322.92 C 1302.76 324.03 1303.65 325.01 1304.68 325.89 C 1304.75 326.33 1304.91 327.19 1304.98 327.62 C 1305.26 327.57 1305.81 327.45 1306.09 327.40 C 1307.09 330.27 1309.44 332.35 1310.80 335.04 C 1311.46 336.18 1312.10 337.34 1312.74 338.52 C 1312.86 338.46 1313.11 338.33 1313.23 338.26 C 1313.67 339.56 1314.26 340.82 1315.01 342.00 C 1316.03 343.81 1316.94 345.69 1317.70 347.64 C 1317.87 347.62 1318.22 347.57 1318.40 347.55 C 1318.66 349.46 1319.05 351.43 1320.51 352.83 C 1320.83 354.12 1321.16 355.41 1321.50 356.71 C 1321.67 356.68 1322.01 356.62 1322.17 356.58 C 1323.04 359.60 1323.94 362.62 1324.59 365.70 C 1324.81 365.67 1325.24 365.60 1325.46 365.56 C 1325.72 368.23 1326.15 370.88 1326.51 373.54 C 1326.75 373.48 1327.24 373.36 1327.48 373.30 C 1327.52 376.78 1328.36 380.19 1328.70 383.65 L 1329.42 383.35 C 1329.36 386.63 1329.51 389.93 1330.21 393.15 C 1330.98 399.41 1330.47 405.74 1330.63 412.03 C 1330.87 417.93 1329.01 423.65 1329.38 429.56 C 1329.19 429.50 1328.80 429.37 1328.61 429.31 C 1328.38 430.61 1328.13 431.91 1327.85 433.20 C 1327.64 435.31 1327.49 437.43 1327.35 439.55 C 1327.00 439.49 1326.29 439.37 1325.94 439.30 C 1325.80 440.92 1325.70 442.56 1325.56 444.19 C 1324.42 446.14 1323.92 448.34 1323.35 450.49 L 1322.59 450.42 C 1322.53 451.80 1322.49 453.19 1322.47 454.58 L 1321.47 454.25 C 1321.13 455.76 1320.76 457.27 1320.42 458.80 C 1320.16 458.71 1319.63 458.54 1319.36 458.46 C 1319.01 460.14 1318.68 461.84 1318.37 463.54 C 1318.20 463.48 1317.85 463.38 1317.68 463.33 C 1316.98 464.59 1316.31 465.87 1315.58 467.12 C 1315.62 467.47 1315.69 468.18 1315.73 468.53 L 1314.62 468.33 C 1314.14 469.74 1313.65 471.14 1313.22 472.57 C 1313.02 472.52 1312.63 472.44 1312.43 472.39 C 1311.12 474.73 1309.74 477.03 1308.25 479.25 C 1306.69 480.91 1305.14 482.62 1304.19 484.72 L 1303.85 484.40 C 1302.32 486.53 1300.69 488.58 1299.14 490.68 L 1298.46 490.29 C 1298.23 490.89 1297.77 492.07 1297.54 492.67 L 1296.92 492.28 C 1296.08 493.16 1295.25 494.03 1294.42 494.90 L 1294.67 495.15 C 1292.35 496.63 1290.34 498.53 1288.41 500.47 C 1287.61 500.83 1286.82 501.20 1286.06 501.57 C 1285.14 502.47 1284.25 503.37 1283.36 504.28 C 1280.80 505.73 1278.33 507.32 1275.93 509.01 C 1273.59 510.36 1271.21 511.65 1268.72 512.69 C 1265.02 514.38 1261.45 516.53 1257.38 517.21 C 1257.41 517.50 1257.45 518.08 1257.47 518.37 C 1255.80 518.48 1254.12 518.59 1252.48 518.69 L 1252.40 519.58 C 1252.10 519.61 1251.49 519.67 1251.18 519.70 C 1249.57 520.14 1247.89 520.38 1246.27 520.63 L 1246.79 521.38 C 1243.22 521.71 1239.69 522.27 1236.13 522.52 L 1236.81 523.49 C 1232.20 523.69 1227.59 523.75 1223.01 524.17 C 1215.05 524.70 1207.13 523.47 1199.17 523.62 L 1199.82 522.57 C 1195.87 522.14 1191.59 522.53 1187.99 520.60 C 1186.13 520.42 1184.30 520.29 1182.46 520.18 C 1182.45 519.81 1182.44 519.06 1182.43 518.69 C 1180.70 518.62 1178.99 518.55 1177.30 518.48 L 1177.70 517.52 C 1175.78 517.13 1173.83 516.76 1172.24 515.58 C 1170.08 514.94 1167.99 514.14 1165.97 513.17 C 1164.59 512.55 1163.25 511.87 1161.95 511.16 C 1160.54 510.31 1159.03 509.66 1157.54 509.06 C 1157.58 508.80 1157.66 508.29 1157.69 508.04 C 1157.01 507.88 1155.64 507.57 1154.96 507.41 C 1153.69 505.95 1151.96 505.06 1150.28 504.19 L 1150.67 503.62 C 1149.70 503.22 1148.74 502.82 1147.80 502.43 C 1145.06 499.76 1142.09 497.35 1139.30 494.75 C 1138.55 494.11 1137.82 493.47 1137.12 492.82 C 1134.86 490.12 1132.53 487.49 1130.12 484.95 C 1129.07 483.66 1128.05 482.35 1127.03 481.06 C 1126.27 479.88 1125.54 478.71 1124.76 477.57 C 1122.36 474.07 1120.19 470.42 1117.97 466.80 C 1117.29 465.49 1116.63 464.18 1116.06 462.84 C 1115.52 461.88 1115.00 460.92 1114.49 459.98 C 1114.56 459.61 1114.69 458.88 1114.75 458.52 L 1113.85 458.63 C 1112.91 455.63 1112.14 452.56 1110.76 449.73 C 1110.11 447.56 1109.65 445.35 1109.41 443.11 L 1108.63 443.83 C 1108.24 441.22 1107.72 438.63 1107.43 436.02 L 1106.64 436.51 C 1106.53 434.97 1106.47 433.45 1106.38 431.92 C 1105.03 425.36 1104.37 418.66 1104.58 411.98 C 1104.46 402.67 1104.46 393.29 1106.39 384.14 C 1106.49 382.59 1106.56 381.04 1106.68 379.50 L 1107.43 380.12 C 1107.70 377.13 1108.34 374.19 1108.77 371.23 L 1109.55 371.96 C 1109.59 369.56 1110.22 367.22 1111.31 365.08 C 1111.76 363.20 1112.27 361.34 1112.70 359.45 L 1113.23 359.45 C 1113.56 358.37 1113.91 357.29 1114.29 356.23 C 1114.86 354.73 1115.47 353.22 1116.59 352.04 C 1116.91 350.74 1117.25 349.45 1117.57 348.15 L 1118.44 348.72 C 1118.78 347.26 1119.16 345.80 1119.54 344.35 L 1120.31 344.67 C 1120.54 344.05 1121.00 342.81 1121.23 342.19 C 1121.74 341.22 1122.27 340.25 1122.80 339.28 L 1123.47 339.77 C 1123.80 338.55 1124.14 337.34 1124.49 336.13 L 1125.20 336.61 C 1125.82 335.42 1126.49 334.24 1127.17 333.08 C 1128.03 331.98 1128.89 330.90 1129.74 329.79 C 1130.44 328.93 1131.16 328.07 1131.88 327.22 C 1132.45 326.40 1133.01 325.57 1133.58 324.74 C 1134.73 323.54 1135.91 322.35 1137.12 321.21 C 1137.75 320.46 1138.41 319.71 1139.08 318.98 C 1140.04 317.97 1141.03 316.98 1142.03 315.99 C 1142.75 315.45 1143.48 314.91 1144.23 314.38 C 1146.22 312.45 1148.38 310.70 1150.74 309.22 L 1150.25 308.57 C 1151.22 308.26 1152.19 307.95 1153.18 307.63 C 1154.24 306.71 1155.31 305.82 1156.52 305.06 L 1156.32 304.73 C 1158.07 303.93 1159.82 303.09 1161.60 302.32 L 1161.23 301.78 C 1162.46 301.23 1163.97 300.98 1164.88 299.85 C 1166.00 299.41 1167.18 299.12 1168.41 298.99 C 1168.39 298.70 1168.35 298.12 1168.33 297.83 C 1172.87 297.19 1176.57 294.07 1181.14 293.49 C 1182.28 292.66 1183.62 292.27 1184.96 291.83 C 1186.15 291.72 1187.36 291.61 1188.59 291.50 C 1188.58 291.25 1188.56 290.75 1188.55 290.50 C 1190.03 290.45 1191.51 290.40 1193.02 290.34 C 1194.35 289.80 1195.70 289.31 1197.06 288.77 C 1199.90 288.65 1202.75 288.53 1205.62 288.48 L 1205.39 287.53 M 1207.18 301.33 C 1207.30 301.60 1207.53 302.13 1207.64 302.40 C 1204.29 302.54 1200.83 302.67 1197.77 304.20 C 1197.08 304.33 1195.68 304.58 1194.98 304.71 C 1193.35 305.48 1191.68 306.16 1190.04 306.85 C 1188.60 307.63 1187.05 308.22 1185.56 308.81 C 1185.62 309.02 1185.76 309.45 1185.82 309.67 C 1184.81 309.99 1183.81 310.31 1182.83 310.63 C 1180.45 312.48 1178.22 314.52 1176.06 316.60 C 1175.74 316.59 1175.10 316.56 1174.78 316.55 C 1174.73 316.91 1174.61 317.62 1174.56 317.98 C 1173.34 318.98 1172.17 320.02 1171.10 321.14 C 1170.45 321.84 1169.82 322.54 1169.19 323.25 C 1168.43 324.28 1167.76 325.36 1167.17 326.48 C 1166.92 326.48 1166.41 326.48 1166.16 326.48 C 1166.18 326.84 1166.23 327.57 1166.26 327.93 C 1165.09 329.32 1163.98 330.73 1162.82 332.11 C 1162.63 333.23 1162.47 334.36 1162.32 335.49 C 1161.96 335.44 1161.23 335.35 1160.86 335.30 C 1160.79 336.07 1160.63 337.61 1160.56 338.38 C 1160.28 338.35 1159.74 338.31 1159.46 338.28 C 1159.08 339.74 1158.69 341.19 1158.36 342.66 L 1157.76 342.55 C 1156.55 345.45 1155.55 348.44 1155.23 351.59 C 1154.91 351.51 1154.27 351.36 1153.95 351.29 C 1153.82 353.37 1153.70 355.45 1153.60 357.54 C 1153.34 357.46 1152.82 357.30 1152.55 357.22 C 1152.17 360.05 1151.68 362.88 1151.39 365.73 L 1150.56 365.39 C 1150.57 368.91 1150.68 372.53 1149.43 375.89 C 1149.16 377.56 1148.83 379.23 1148.77 380.93 C 1148.46 392.94 1148.50 404.96 1148.79 416.97 C 1149.22 419.23 1149.48 421.53 1149.89 423.81 C 1150.63 426.35 1150.55 429.02 1150.58 431.65 L 1151.35 431.39 C 1151.66 434.52 1152.24 437.62 1152.58 440.75 L 1153.59 440.22 C 1153.68 441.84 1153.80 443.46 1153.96 445.10 C 1155.85 447.69 1155.49 451.09 1156.72 453.97 C 1157.11 455.13 1157.46 456.31 1157.80 457.51 L 1158.21 457.39 C 1158.50 459.33 1158.95 461.29 1160.41 462.74 C 1160.61 464.03 1160.81 465.32 1161.03 466.63 C 1161.30 466.57 1161.83 466.45 1162.10 466.39 C 1162.91 468.74 1163.87 471.05 1164.89 473.34 L 1165.40 473.27 C 1165.77 474.42 1166.16 475.57 1166.57 476.73 L 1167.23 476.28 C 1167.78 477.89 1168.11 479.73 1169.65 480.76 C 1170.32 481.89 1171.00 483.03 1171.70 484.18 C 1173.10 485.91 1174.55 487.61 1175.85 489.44 C 1176.09 489.39 1176.56 489.29 1176.79 489.23 L 1176.63 490.22 C 1177.81 491.13 1178.99 492.03 1180.20 492.93 C 1180.19 493.29 1180.19 494.02 1180.18 494.38 L 1181.19 494.15 C 1183.20 496.53 1185.40 498.91 1188.45 499.93 C 1188.44 500.12 1188.42 500.51 1188.41 500.70 C 1189.52 501.20 1190.62 501.74 1191.74 502.31 C 1192.73 502.91 1193.73 503.53 1194.72 504.18 C 1197.24 505.35 1199.86 506.23 1202.58 506.83 C 1202.49 507.08 1202.31 507.57 1202.22 507.81 C 1204.74 508.07 1207.29 508.36 1209.84 508.58 L 1209.16 509.64 C 1213.45 509.49 1217.73 509.97 1222.02 510.20 C 1226.24 509.85 1230.47 509.53 1234.73 509.46 C 1234.60 509.19 1234.33 508.63 1234.20 508.36 C 1236.33 508.15 1238.47 507.90 1240.62 507.68 C 1240.52 507.44 1240.31 506.94 1240.21 506.69 C 1242.00 506.31 1243.80 505.89 1245.62 505.50 L 1245.35 504.87 C 1247.48 504.04 1249.58 503.12 1251.73 502.29 L 1251.33 501.74 C 1252.53 501.20 1253.74 500.62 1254.82 499.82 C 1256.59 498.24 1258.44 496.75 1260.34 495.31 C 1261.01 494.65 1261.71 494.02 1262.43 493.41 C 1263.87 491.55 1265.36 489.72 1266.83 487.88 C 1268.36 485.84 1269.97 483.85 1271.41 481.73 C 1271.43 481.54 1271.48 481.15 1271.51 480.95 C 1273.46 478.45 1274.91 475.61 1275.75 472.55 L 1276.40 472.96 C 1276.73 470.98 1277.38 469.08 1278.37 467.33 C 1278.40 466.86 1278.45 465.91 1278.47 465.44 L 1279.26 465.57 C 1279.77 463.14 1280.38 460.73 1280.89 458.30 C 1281.30 457.52 1281.71 456.74 1282.14 455.97 C 1282.29 454.05 1282.46 452.13 1282.77 450.24 C 1283.44 449.28 1283.63 448.10 1283.99 447.01 C 1284.37 444.44 1284.47 441.83 1284.52 439.24 L 1285.39 439.70 C 1285.19 434.41 1286.63 429.24 1286.43 423.95 C 1286.58 416.95 1286.49 409.96 1286.45 402.96 C 1286.61 397.71 1285.23 392.57 1285.38 387.32 L 1284.51 387.73 C 1284.42 385.48 1284.34 383.25 1284.22 381.01 C 1283.92 379.77 1283.67 378.52 1283.46 377.28 C 1283.25 377.36 1282.85 377.53 1282.65 377.61 C 1282.57 373.78 1281.64 370.04 1281.35 366.23 L 1280.56 366.71 C 1280.03 360.97 1276.56 356.02 1276.31 350.22 C 1275.95 350.32 1275.24 350.50 1274.88 350.60 C 1274.82 349.55 1274.69 347.46 1274.62 346.41 C 1274.39 346.47 1273.91 346.59 1273.68 346.65 C 1272.94 344.54 1272.11 342.49 1271.26 340.44 L 1270.66 340.52 C 1270.25 339.31 1269.81 338.11 1269.41 336.92 C 1268.61 335.77 1267.83 334.61 1267.17 333.40 L 1266.77 333.67 C 1265.75 330.66 1263.78 328.16 1261.58 325.93 C 1261.43 325.34 1261.11 324.16 1260.96 323.56 C 1260.56 323.59 1259.75 323.66 1259.35 323.69 C 1259.38 323.23 1259.45 322.30 1259.48 321.84 C 1259.11 321.77 1258.38 321.62 1258.01 321.55 C 1256.98 320.34 1256.04 319.09 1255.04 317.89 C 1254.13 317.32 1253.25 316.71 1252.41 316.09 C 1252.44 315.82 1252.49 315.29 1252.52 315.03 C 1251.94 314.84 1250.79 314.47 1250.21 314.28 C 1249.31 313.48 1248.38 312.73 1247.42 312.04 L 1247.31 311.23 C 1247.04 311.23 1246.49 311.24 1246.22 311.24 C 1245.07 310.33 1243.77 309.66 1242.44 309.12 C 1242.46 308.82 1242.52 308.23 1242.54 307.93 C 1241.78 307.89 1240.26 307.79 1239.49 307.74 C 1239.55 307.47 1239.66 306.93 1239.71 306.66 C 1237.78 306.36 1235.94 305.78 1234.20 304.92 C 1232.80 304.45 1231.46 303.99 1230.11 303.50 C 1227.19 302.78 1224.20 302.44 1221.21 302.38 L 1221.84 301.37 C 1216.95 301.20 1212.06 301.37 1207.18 301.33 Z" />
<path fill="#0f0b0f" opacity="1.00" d=" M 763.91 292.33 C 791.94 292.09 819.99 292.73 848.02 292.06 C 849.38 292.10 850.75 292.20 852.12 292.35 C 852.36 295.31 852.70 298.32 852.11 301.27 C 851.50 301.43 850.28 301.74 849.66 301.89 C 849.70 302.08 849.78 302.44 849.82 302.62 C 846.32 302.84 842.85 303.32 839.36 303.60 L 839.67 304.48 C 837.96 304.52 836.26 304.56 834.58 304.62 C 834.62 304.86 834.71 305.36 834.76 305.61 C 834.13 305.85 832.89 306.32 832.26 306.56 L 832.74 307.14 C 831.34 307.54 830.54 308.46 830.33 309.90 L 829.62 309.35 C 829.28 311.22 828.88 313.07 828.52 314.94 L 827.78 314.59 C 827.65 316.11 827.57 317.64 827.46 319.16 C 827.00 321.41 826.57 323.69 826.66 326.01 C 826.62 381.46 826.52 436.92 826.72 492.37 L 827.41 492.20 C 827.52 494.13 827.91 496.03 828.44 497.90 C 828.85 499.31 828.98 500.98 830.30 501.93 C 830.68 502.68 831.07 503.44 831.46 504.21 C 832.35 504.86 833.25 505.52 834.16 506.19 C 835.33 506.35 836.51 506.50 837.70 506.66 C 837.59 506.93 837.35 507.48 837.23 507.75 C 840.08 507.93 842.92 508.16 845.79 508.25 C 845.67 508.54 845.43 509.11 845.31 509.39 C 847.57 509.46 849.83 509.58 852.11 509.68 C 852.46 513.01 852.66 516.41 851.76 519.69 C 824.83 519.11 797.88 518.83 770.95 519.63 C 768.80 519.67 766.63 519.84 764.50 519.50 C 762.34 517.40 762.38 514.23 762.48 511.42 L 763.50 511.87 C 763.95 510.86 764.41 509.85 764.88 508.85 C 769.51 508.52 774.12 508.03 778.75 507.69 C 778.66 507.47 778.47 507.03 778.37 506.81 C 781.76 506.57 784.49 504.30 785.84 501.28 L 786.45 501.55 C 787.18 498.48 787.47 495.33 787.58 492.19 L 788.61 492.81 C 788.40 487.19 788.88 481.60 789.26 476.02 C 789.26 429.34 789.27 382.66 789.26 335.98 C 788.97 331.38 788.46 326.79 788.69 322.17 C 788.44 322.24 787.94 322.38 787.69 322.44 C 787.66 318.37 787.35 314.31 786.56 310.31 C 786.19 310.34 785.46 310.40 785.10 310.43 L 785.50 309.02 C 784.71 308.21 783.94 307.41 783.18 306.59 C 781.87 305.91 780.58 305.24 779.30 304.54 C 777.62 304.46 775.95 304.39 774.29 304.33 L 774.87 303.52 C 771.34 303.18 767.83 302.67 764.29 302.47 C 764.34 302.01 764.44 301.08 764.49 300.62 C 763.98 300.61 762.97 300.59 762.47 300.57 C 762.33 297.73 762.89 294.97 763.91 292.33 Z" />
<path fill="#0f0b0f" opacity="1.00" d=" M 868.59 292.70 C 869.70 292.42 870.83 292.13 871.96 291.85 C 891.65 293.04 911.43 292.15 931.16 292.24 C 931.17 292.88 931.19 294.15 931.20 294.78 L 932.33 294.25 C 932.74 295.70 933.20 297.15 933.63 298.62 C 933.94 298.62 934.56 298.62 934.87 298.62 L 934.58 299.84 C 935.39 301.04 936.17 302.27 936.90 303.54 L 937.18 303.37 C 937.81 304.57 938.57 305.72 939.32 306.88 C 939.88 307.88 940.46 308.90 941.22 309.81 C 942.14 311.05 943.00 312.35 943.77 313.71 L 944.33 313.24 C 944.71 314.43 945.10 315.62 945.52 316.81 L 946.45 316.24 C 946.84 317.37 947.24 318.51 947.65 319.65 L 948.25 319.30 C 948.49 319.71 948.97 320.52 949.22 320.92 C 950.51 322.64 951.81 324.36 953.14 326.06 C 953.60 326.82 954.06 327.60 954.53 328.38 C 955.83 329.81 957.06 331.32 958.30 332.82 C 958.74 333.59 959.20 334.37 959.67 335.14 C 960.46 335.94 961.21 336.79 961.92 337.69 L 962.08 337.42 C 962.87 338.60 963.62 339.80 964.42 341.00 L 964.29 341.30 C 965.28 342.17 966.29 343.06 967.29 343.94 C 967.67 344.86 968.07 345.78 968.47 346.70 L 969.15 346.35 C 970.12 347.85 971.12 349.34 972.13 350.82 C 972.81 351.53 973.50 352.24 974.21 352.95 C 974.87 353.78 975.55 354.60 976.27 355.41 C 976.86 356.20 977.47 356.98 978.09 357.77 C 979.71 359.52 981.20 361.38 982.64 363.29 C 984.57 365.24 986.37 367.34 987.88 369.67 L 988.74 369.17 C 988.74 369.73 988.74 370.84 988.73 371.40 C 989.06 371.41 989.70 371.43 990.02 371.44 C 991.48 373.46 993.14 375.31 994.88 377.10 C 995.50 377.95 996.13 378.81 996.75 379.68 C 997.46 380.41 998.16 381.17 998.87 381.93 C 999.97 383.22 1001.07 384.52 1002.20 385.81 C 1002.82 386.54 1003.45 387.27 1004.11 387.99 C 1004.75 388.63 1005.39 389.28 1006.05 389.93 C 1006.87 391.07 1007.72 392.20 1008.58 393.33 C 1010.02 394.91 1011.43 396.53 1012.84 398.16 C 1014.00 399.36 1015.13 400.59 1016.31 401.78 C 1016.73 402.54 1017.16 403.31 1017.61 404.08 C 1018.49 404.94 1019.36 405.84 1020.26 406.72 C 1021.91 408.60 1023.48 410.56 1024.80 412.70 L 1025.16 412.45 C 1026.41 414.40 1027.96 416.14 1029.53 417.86 L 1029.29 418.78 L 1030.19 418.42 C 1030.74 419.30 1031.31 420.18 1031.90 421.05 C 1032.75 421.71 1033.62 422.36 1034.50 423.01 C 1034.45 423.33 1034.33 423.97 1034.28 424.29 L 1035.12 424.46 C 1035.77 425.36 1036.47 426.27 1037.17 427.16 C 1037.87 427.99 1038.61 428.81 1039.37 429.63 C 1039.97 430.32 1040.59 431.02 1041.22 431.71 C 1042.69 433.59 1044.28 435.39 1045.96 437.11 C 1047.22 438.87 1048.59 440.57 1049.95 442.28 C 1050.26 442.49 1050.88 442.91 1051.19 443.11 C 1051.87 444.04 1052.56 444.97 1053.25 445.91 C 1055.40 448.58 1057.60 451.35 1060.72 452.96 C 1060.75 414.04 1061.06 375.10 1060.47 336.19 L 1059.38 336.88 C 1059.13 332.40 1059.60 327.70 1057.94 323.44 C 1057.38 320.23 1057.50 316.79 1055.60 313.97 C 1055.65 313.61 1055.76 312.87 1055.81 312.50 L 1054.56 312.59 C 1054.44 311.82 1054.18 310.26 1054.05 309.49 C 1053.63 309.54 1052.78 309.64 1052.35 309.69 C 1052.37 309.35 1052.42 308.66 1052.45 308.32 C 1051.21 307.59 1050.03 306.84 1048.84 306.09 C 1047.91 305.61 1047.01 305.11 1046.12 304.60 C 1045.21 304.57 1043.38 304.49 1042.47 304.45 C 1042.49 304.23 1042.54 303.79 1042.56 303.58 C 1039.02 303.22 1035.50 302.76 1031.98 302.42 C 1031.18 301.57 1030.35 300.77 1029.49 300.02 C 1029.43 297.62 1029.52 295.22 1029.67 292.82 C 1030.71 292.49 1031.76 292.15 1032.83 291.82 C 1037.87 292.49 1042.96 292.17 1048.04 292.27 C 1065.02 292.43 1082.00 292.46 1098.98 292.11 C 1100.59 291.86 1102.20 292.10 1103.82 292.34 L 1103.11 293.87 C 1103.53 293.75 1104.37 293.51 1104.80 293.39 C 1104.68 296.58 1105.69 300.45 1102.62 302.58 C 1100.24 302.88 1097.88 303.28 1095.52 303.59 L 1095.72 304.51 C 1093.94 304.52 1092.16 304.54 1090.41 304.55 L 1090.71 305.30 C 1089.21 305.67 1087.73 306.08 1086.27 306.47 L 1086.57 307.10 C 1084.56 307.82 1083.67 309.60 1083.02 311.48 C 1082.75 311.43 1082.21 311.34 1081.93 311.29 C 1081.69 313.65 1081.47 316.01 1081.29 318.38 C 1081.09 318.36 1080.70 318.32 1080.50 318.30 C 1080.26 319.56 1080.01 320.82 1079.74 322.08 C 1079.55 326.93 1079.58 331.81 1078.54 336.58 C 1078.11 388.71 1078.41 440.85 1078.36 492.98 C 1078.37 502.53 1078.49 512.08 1078.58 521.63 C 1078.02 521.89 1076.90 522.40 1076.35 522.65 L 1076.78 523.18 C 1075.66 523.73 1074.68 524.45 1073.85 525.35 C 1071.61 525.61 1069.37 525.64 1067.16 525.38 C 1065.85 523.04 1064.15 520.97 1062.39 518.99 C 1062.41 518.77 1062.46 518.35 1062.48 518.14 C 1061.71 517.36 1060.97 516.56 1060.25 515.76 C 1058.55 513.74 1056.75 511.80 1055.38 509.55 C 1054.54 508.66 1053.75 507.79 1052.89 506.96 C 1052.37 506.09 1051.88 505.23 1051.40 504.38 L 1050.80 504.68 C 1049.95 503.28 1049.08 501.90 1048.25 500.51 L 1047.85 500.66 C 1047.17 499.76 1046.51 498.87 1045.85 497.98 C 1045.12 497.05 1044.41 496.12 1043.67 495.23 C 1043.10 494.52 1042.54 493.82 1041.99 493.13 C 1041.05 492.04 1040.14 490.95 1039.26 489.84 C 1038.61 489.04 1037.97 488.25 1037.35 487.45 C 1036.05 486.08 1034.86 484.64 1033.67 483.20 C 1033.22 482.40 1032.77 481.60 1032.33 480.82 C 1031.65 480.17 1030.99 479.52 1030.34 478.87 C 1029.55 477.95 1028.78 477.02 1028.02 476.11 C 1025.55 473.04 1023.12 469.94 1020.31 467.18 L 1020.65 466.86 C 1018.96 465.18 1017.43 463.35 1016.19 461.33 L 1015.86 461.62 C 1014.95 460.30 1014.00 459.04 1013.01 457.81 C 1012.39 456.94 1011.79 456.06 1011.22 455.19 L 1010.90 455.55 C 1010.25 454.65 1009.60 453.77 1008.95 452.90 C 1008.67 452.47 1008.11 451.60 1007.83 451.16 C 1005.79 448.86 1003.71 446.59 1001.99 444.04 C 1001.18 443.31 1000.38 442.60 999.59 441.90 C 999.60 441.66 999.64 441.18 999.65 440.95 C 999.07 440.52 997.91 439.66 997.33 439.23 L 997.86 438.26 C 997.59 438.26 997.06 438.25 996.79 438.24 C 996.10 437.20 995.40 436.19 994.68 435.19 C 993.15 433.39 991.63 431.59 990.09 429.81 C 988.61 428.12 987.21 426.35 986.11 424.40 C 985.88 424.40 985.42 424.40 985.19 424.40 C 984.49 423.18 983.74 422.02 982.75 421.05 C 982.25 420.12 981.77 419.19 981.31 418.27 L 980.81 418.76 C 979.40 416.58 977.76 414.58 976.09 412.61 L 975.82 412.54 C 974.62 410.67 973.23 408.95 971.76 407.30 C 970.15 405.57 968.77 403.66 967.48 401.69 C 964.80 398.88 962.33 395.90 959.71 393.05 C 959.27 392.08 958.86 391.11 958.47 390.14 L 957.94 390.68 C 956.33 388.60 954.68 386.58 953.14 384.46 L 952.26 384.75 C 952.27 384.20 952.28 383.09 952.29 382.53 C 951.79 382.51 950.79 382.47 950.30 382.44 C 950.33 382.08 950.39 381.36 950.42 381.00 C 949.66 380.27 948.92 379.54 948.19 378.80 C 946.87 377.14 945.53 375.50 944.24 373.84 C 941.76 370.92 939.23 368.06 936.90 365.03 C 934.91 362.00 932.31 359.45 930.15 356.57 L 929.77 356.82 C 929.14 355.86 928.52 354.90 927.90 353.95 C 926.99 352.94 926.10 351.91 925.25 350.88 C 924.55 349.99 923.86 349.10 923.17 348.22 L 922.84 348.58 C 922.36 346.55 920.49 346.34 918.76 346.07 C 918.60 369.37 918.71 392.68 918.68 415.98 C 918.88 431.00 918.17 446.06 919.32 461.05 C 919.38 467.87 919.53 474.70 919.65 481.52 C 919.90 481.47 920.40 481.38 920.64 481.33 C 920.58 482.73 920.54 484.13 920.50 485.54 L 921.33 485.39 C 921.31 489.18 921.93 492.92 922.70 496.63 L 923.40 496.28 C 923.69 497.69 924.03 499.09 924.37 500.51 C 925.21 501.29 926.04 502.12 926.88 502.95 C 927.61 503.60 928.36 504.27 929.10 504.95 C 931.08 505.96 933.22 506.55 935.44 506.81 C 935.39 507.06 935.27 507.58 935.22 507.83 C 938.62 508.13 942.02 508.43 945.44 508.66 C 945.37 508.93 945.24 509.45 945.17 509.71 C 945.90 509.71 947.35 509.70 948.07 509.69 C 948.43 510.20 949.13 511.20 949.49 511.71 C 949.63 513.88 950.07 516.23 948.76 518.18 C 948.69 518.51 948.53 519.18 948.45 519.52 C 944.98 519.81 941.50 519.63 938.03 519.51 C 922.70 519.00 907.36 519.10 892.03 519.29 C 886.55 519.33 881.06 520.08 875.60 519.37 C 875.12 516.18 875.13 512.96 875.47 509.76 C 876.28 509.74 877.90 509.68 878.71 509.65 C 878.62 509.36 878.43 508.78 878.34 508.48 C 880.80 508.29 883.26 508.11 885.74 508.00 C 885.70 507.68 885.61 507.06 885.56 506.75 C 888.21 506.42 891.26 506.78 893.13 504.46 C 893.46 504.54 894.12 504.71 894.46 504.79 L 894.52 504.03 C 895.36 503.14 896.15 502.22 896.91 501.26 C 897.16 500.73 897.67 499.68 897.93 499.16 C 898.65 496.30 899.06 493.39 899.56 490.49 C 901.40 483.48 900.38 476.16 901.27 469.03 C 901.66 425.70 901.36 382.37 901.45 339.05 C 901.65 333.32 900.79 327.64 900.51 321.94 L 899.75 322.58 C 899.02 320.33 898.13 318.13 897.10 316.00 C 895.64 314.59 894.30 313.08 893.12 311.44 L 892.95 311.67 C 892.04 310.43 890.79 309.63 889.36 309.19 C 889.39 308.86 889.45 308.21 889.48 307.88 C 888.73 307.86 887.23 307.83 886.49 307.81 C 886.53 307.54 886.63 306.98 886.68 306.71 C 883.20 306.12 879.98 304.48 876.45 304.21 C 876.50 304.04 876.60 303.70 876.64 303.53 C 874.22 303.19 871.82 302.76 869.42 302.41 C 869.48 302.00 869.61 301.19 869.67 300.78 L 868.22 300.80 C 868.26 298.09 868.38 295.39 868.59 292.70 Z" />
<path fill="#0f0b0f" opacity="1.00" d=" M 467.12 615.47 C 468.46 615.32 469.79 615.20 471.15 615.11 C 471.17 615.79 471.21 617.14 471.23 617.81 L 472.39 617.15 C 472.71 619.35 473.13 621.54 473.51 623.74 C 473.75 623.71 474.24 623.64 474.48 623.61 C 474.53 624.47 474.61 626.18 474.66 627.04 C 475.06 628.03 475.45 629.03 475.84 630.04 C 476.96 633.56 478.08 637.10 478.52 640.80 L 479.51 640.16 C 479.65 641.70 479.81 643.25 480.02 644.81 C 482.29 648.31 482.86 652.61 483.68 656.63 C 483.87 656.58 484.24 656.48 484.43 656.43 C 484.89 660.63 487.10 664.37 487.60 668.58 C 487.81 668.52 488.24 668.42 488.46 668.36 C 488.53 669.25 488.68 671.02 488.76 671.91 C 489.92 673.63 490.44 675.63 490.63 677.70 L 491.49 677.46 C 491.62 679.19 491.75 680.92 491.89 682.68 C 492.23 682.64 492.90 682.56 493.24 682.52 C 493.46 684.96 493.83 687.39 494.38 689.79 L 495.27 689.25 C 495.48 692.83 496.72 696.21 497.70 699.63 L 498.46 699.26 C 498.54 700.72 498.62 702.20 498.72 703.68 C 499.08 703.68 499.78 703.67 500.14 703.66 C 500.05 708.94 502.69 713.60 503.73 718.63 L 504.48 718.49 C 504.54 720.22 504.62 721.97 504.69 723.71 L 505.69 723.17 C 506.11 725.24 506.43 727.34 506.67 729.45 C 506.93 729.35 507.45 729.15 507.71 729.06 C 508.00 730.53 508.30 732.01 508.59 733.49 C 508.83 733.42 509.33 733.27 509.57 733.20 C 509.99 734.29 510.42 735.40 510.84 736.51 C 511.15 736.46 511.75 736.36 512.05 736.31 C 512.77 739.30 516.40 738.08 518.64 738.62 C 518.54 738.81 518.35 739.19 518.25 739.38 C 519.98 739.83 521.70 740.33 523.44 740.77 C 523.57 742.30 523.69 743.81 523.83 745.36 C 516.90 745.86 509.95 745.36 503.02 745.50 C 493.94 745.36 484.85 745.78 475.78 745.43 C 475.76 744.57 475.72 742.84 475.70 741.98 C 475.96 741.41 476.47 740.26 476.73 739.69 C 478.44 739.68 480.16 739.66 481.89 739.67 L 481.42 738.68 C 482.46 738.58 484.54 738.37 485.58 738.27 C 485.76 734.49 485.36 730.74 484.59 727.05 L 483.78 727.96 C 483.40 725.42 482.85 722.92 482.41 720.41 C 482.25 720.44 481.94 720.51 481.79 720.55 C 481.29 718.70 480.74 716.88 480.22 715.06 C 479.88 713.76 479.61 712.45 479.36 711.15 L 478.71 711.72 C 478.35 709.53 477.94 707.37 477.59 705.20 C 477.39 705.29 476.98 705.47 476.78 705.55 C 476.51 703.03 475.52 700.73 474.11 698.65 C 463.28 698.41 452.44 698.52 441.60 698.62 C 441.13 699.95 440.65 701.29 440.22 702.66 L 439.74 702.38 C 439.12 705.57 437.96 708.62 437.34 711.82 L 436.54 711.40 C 436.15 713.83 435.71 716.24 435.34 718.68 C 435.12 718.57 434.68 718.34 434.46 718.22 C 434.11 720.30 433.70 722.37 433.38 724.46 L 432.79 724.37 C 431.97 728.77 429.73 732.97 430.58 737.59 C 432.63 738.76 435.15 738.37 437.42 738.72 C 437.38 738.90 437.31 739.26 437.27 739.44 C 438.75 739.75 440.22 740.13 441.70 740.52 L 441.18 742.00 L 442.48 741.29 C 442.51 742.34 442.55 743.39 442.61 744.45 C 441.98 744.66 440.74 745.09 440.12 745.31 L 440.86 746.52 C 428.40 746.32 415.94 746.32 403.48 746.49 C 403.54 746.04 403.65 745.13 403.71 744.67 L 402.39 744.77 C 402.46 743.40 402.53 742.06 402.61 740.72 C 404.39 740.31 406.15 739.83 407.93 739.42 L 407.51 738.73 C 409.76 738.54 412.02 738.26 414.20 737.64 C 414.85 736.77 415.53 735.94 416.23 735.13 C 417.45 733.33 418.31 731.33 418.72 729.21 L 419.52 729.66 C 419.88 727.80 420.26 725.96 420.60 724.11 L 421.48 724.74 C 421.81 722.93 422.18 721.14 422.54 719.34 L 423.38 719.67 C 423.53 718.47 423.69 717.28 423.86 716.10 C 424.22 715.60 424.94 714.58 425.29 714.07 C 425.39 712.83 425.49 711.59 425.59 710.36 C 425.89 710.44 426.48 710.60 426.77 710.68 C 427.02 708.91 427.26 707.14 427.50 705.38 C 427.76 705.48 428.27 705.68 428.53 705.78 C 428.73 703.75 429.12 701.75 430.05 699.93 C 430.52 698.63 430.98 697.35 431.45 696.07 C 431.88 694.48 432.32 692.89 432.71 691.31 L 433.52 691.73 C 433.90 689.58 434.32 687.44 434.68 685.30 C 434.89 685.41 435.31 685.64 435.52 685.76 C 435.87 683.98 436.28 682.21 436.65 680.45 C 436.79 680.46 437.08 680.48 437.22 680.49 C 437.55 679.32 437.91 678.16 438.29 677.01 C 438.71 675.42 439.17 673.84 439.65 672.27 L 440.42 672.82 C 440.77 670.59 441.22 668.39 441.59 666.17 L 442.43 666.79 C 442.82 664.64 443.31 662.52 443.67 660.38 L 444.69 660.61 C 444.64 660.26 444.53 659.55 444.48 659.20 C 445.52 656.72 446.42 654.18 446.87 651.54 L 447.69 651.84 C 447.71 651.44 447.74 650.64 447.76 650.24 C 448.17 648.61 448.51 646.97 448.80 645.33 C 449.12 645.41 449.75 645.58 450.07 645.66 C 450.24 643.90 450.40 642.14 450.57 640.39 C 450.91 640.43 451.58 640.52 451.92 640.56 C 451.82 640.19 451.63 639.46 451.53 639.10 C 452.86 636.06 453.92 632.93 454.93 629.78 C 455.19 628.16 455.36 626.52 455.54 624.90 C 456.36 624.19 457.18 623.47 458.00 622.76 C 459.03 622.32 460.08 621.88 461.12 621.46 C 463.23 619.57 465.43 617.76 467.12 615.47 M 457.50 645.36 C 457.06 648.31 456.96 651.33 456.28 654.27 C 455.17 656.07 454.51 658.09 453.78 660.07 C 453.25 661.76 452.68 663.45 452.16 665.16 C 451.60 667.18 451.41 669.41 449.90 671.01 C 449.75 672.29 449.63 673.57 449.53 674.87 L 448.59 674.28 C 448.19 676.34 447.73 678.39 447.36 680.47 L 446.52 680.30 C 446.47 681.20 446.43 682.12 446.38 683.04 C 445.60 684.84 444.93 686.68 444.32 688.55 C 450.40 690.09 456.75 689.04 462.96 689.36 C 465.75 689.13 468.93 690.01 471.41 688.37 C 471.43 685.58 470.82 682.85 470.42 680.12 L 469.56 680.74 C 469.29 679.48 469.01 678.24 468.72 677.00 C 468.68 676.55 468.61 675.63 468.57 675.17 L 467.76 675.55 C 467.40 672.53 466.34 669.67 465.32 666.83 C 464.20 664.83 464.09 662.50 463.78 660.31 C 463.51 660.40 462.97 660.60 462.69 660.70 C 462.36 658.24 461.88 655.82 461.45 653.40 C 461.24 653.44 460.81 653.54 460.60 653.59 C 460.45 651.38 460.54 649.10 459.82 646.98 C 459.54 646.10 458.54 644.73 457.50 645.36 Z" />
<path fill="#0f0b0f" opacity="1.00" d=" M 1247.97 620.99 C 1250.14 618.74 1252.49 616.68 1254.70 614.46 C 1255.43 614.72 1256.90 615.24 1257.63 615.50 C 1258.06 617.10 1258.45 618.72 1258.78 620.37 L 1259.70 620.35 L 1259.15 621.62 C 1259.40 621.64 1259.90 621.69 1260.15 621.71 C 1260.46 624.42 1260.97 627.11 1261.43 629.81 L 1262.30 629.24 C 1262.64 631.69 1263.11 634.11 1263.49 636.56 C 1263.69 636.53 1264.11 636.48 1264.31 636.46 C 1264.92 642.06 1267.79 647.07 1268.54 652.65 C 1268.81 652.55 1269.34 652.36 1269.61 652.26 C 1269.70 654.08 1269.80 655.89 1269.91 657.72 C 1270.26 657.66 1270.95 657.54 1271.29 657.47 C 1271.44 658.98 1271.60 660.48 1271.78 662.01 C 1273.25 665.83 1274.91 669.63 1275.39 673.75 C 1275.63 673.63 1276.12 673.38 1276.36 673.26 C 1276.66 675.68 1277.04 678.10 1277.42 680.52 C 1277.66 680.45 1278.12 680.30 1278.36 680.22 C 1278.55 682.24 1279.05 684.21 1279.68 686.15 C 1280.02 687.29 1280.36 688.44 1280.69 689.62 L 1281.42 689.37 C 1281.57 691.13 1281.72 692.88 1281.91 694.66 C 1282.27 694.63 1282.98 694.55 1283.33 694.52 C 1283.54 696.84 1283.74 699.17 1283.93 701.51 C 1284.30 701.46 1285.06 701.36 1285.43 701.31 C 1285.47 702.54 1285.53 703.78 1285.62 705.03 C 1286.28 706.72 1286.87 708.43 1287.55 710.14 C 1287.49 710.50 1287.37 711.24 1287.31 711.60 L 1288.41 711.43 C 1288.50 712.58 1288.60 713.73 1288.72 714.89 C 1288.93 715.60 1289.36 717.04 1289.58 717.75 L 1290.47 717.16 C 1290.57 718.99 1290.69 720.82 1290.86 722.67 C 1291.19 722.62 1291.87 722.52 1292.21 722.47 C 1292.41 724.33 1292.63 726.20 1292.99 728.05 C 1294.74 731.04 1295.19 735.17 1298.52 736.94 L 1298.13 737.64 C 1299.71 737.90 1301.28 738.20 1302.89 738.48 L 1302.36 739.30 C 1304.75 739.68 1307.99 738.98 1309.33 741.62 C 1309.44 742.42 1309.67 744.02 1309.79 744.81 C 1307.71 745.99 1305.27 745.53 1303.02 745.60 C 1289.50 745.30 1275.98 745.71 1262.47 745.47 C 1262.42 743.80 1262.40 742.15 1262.40 740.50 C 1265.56 739.90 1268.69 739.09 1271.75 738.07 C 1272.33 732.96 1270.51 728.19 1269.47 723.29 C 1269.27 723.38 1268.85 723.56 1268.65 723.65 C 1268.19 721.11 1268.21 718.34 1266.69 716.15 C 1265.80 713.25 1264.83 710.37 1264.21 707.41 L 1263.65 707.62 C 1263.25 705.45 1262.79 703.29 1262.42 701.14 L 1261.66 701.69 C 1261.23 700.67 1260.81 699.66 1260.40 698.66 C 1249.72 698.37 1239.05 698.63 1228.38 698.53 L 1228.26 699.76 C 1227.85 699.66 1227.03 699.45 1226.62 699.34 C 1226.16 701.74 1225.71 704.14 1225.37 706.56 C 1225.18 706.49 1224.81 706.35 1224.62 706.28 C 1223.86 709.39 1222.90 712.46 1222.29 715.62 L 1221.63 715.33 C 1221.14 717.72 1220.61 720.10 1220.24 722.52 C 1220.01 722.45 1219.55 722.32 1219.33 722.25 C 1218.92 724.61 1218.52 726.98 1218.26 729.37 L 1217.51 729.06 C 1216.78 731.86 1216.32 734.72 1216.47 737.64 C 1218.77 738.26 1221.15 738.59 1223.55 738.76 C 1223.47 739.01 1223.32 739.50 1223.24 739.75 C 1224.65 739.70 1226.06 739.66 1227.50 739.64 C 1227.81 741.90 1227.86 744.20 1227.45 746.47 C 1214.82 746.35 1202.19 746.34 1189.56 746.46 C 1188.94 744.13 1187.85 740.93 1190.76 739.71 C 1192.08 739.65 1193.42 739.59 1194.77 739.52 L 1194.23 738.60 C 1196.41 738.14 1199.67 739.19 1200.88 736.71 C 1201.34 736.38 1202.27 735.71 1202.73 735.38 C 1203.06 734.03 1203.39 732.69 1203.71 731.35 C 1204.02 731.40 1204.62 731.50 1204.92 731.55 C 1205.17 728.39 1206.53 725.55 1207.97 722.80 C 1208.22 721.59 1208.48 720.38 1208.73 719.18 C 1209.09 718.94 1209.82 718.45 1210.19 718.20 C 1210.29 716.55 1210.43 714.92 1210.57 713.29 L 1211.68 713.83 C 1212.02 711.96 1212.37 710.10 1212.69 708.24 L 1213.39 708.69 C 1213.79 706.92 1214.26 705.17 1214.68 703.42 L 1215.39 703.49 C 1215.43 702.11 1215.49 700.74 1215.56 699.39 L 1216.67 699.73 C 1217.00 697.84 1217.33 695.97 1217.61 694.09 L 1218.60 694.71 C 1218.88 692.88 1219.19 691.05 1219.48 689.23 L 1220.35 689.57 C 1220.54 688.40 1220.77 687.24 1221.04 686.09 C 1221.76 684.22 1222.36 682.30 1222.84 680.36 C 1223.04 680.39 1223.44 680.46 1223.64 680.50 C 1223.91 678.74 1224.24 677.00 1224.52 675.25 C 1224.77 675.35 1225.28 675.53 1225.53 675.63 C 1225.81 674.10 1226.11 672.59 1226.46 671.08 C 1227.10 669.73 1227.53 668.29 1227.87 666.84 C 1228.18 666.37 1228.81 665.43 1229.13 664.96 C 1229.26 663.69 1229.41 662.43 1229.57 661.18 L 1230.49 661.62 C 1230.76 659.85 1231.05 658.07 1231.37 656.31 C 1231.62 656.42 1232.12 656.63 1232.37 656.74 C 1232.75 654.34 1233.25 651.96 1233.70 649.58 C 1234.01 649.55 1234.63 649.49 1234.95 649.46 C 1234.84 649.13 1234.61 648.47 1234.50 648.14 C 1235.49 645.94 1236.35 643.67 1236.76 641.30 L 1237.41 641.72 C 1237.83 639.61 1238.32 637.51 1238.71 635.40 C 1238.95 635.49 1239.43 635.69 1239.66 635.78 C 1240.20 633.01 1240.54 630.20 1240.73 627.40 L 1241.71 627.90 C 1241.67 626.92 1241.64 625.94 1241.64 624.97 C 1242.36 624.26 1243.11 623.57 1243.88 622.90 C 1245.25 622.33 1246.63 621.68 1247.97 620.99 M 1243.62 647.53 C 1243.56 648.90 1243.52 650.28 1243.49 651.66 L 1242.57 651.55 C 1242.21 653.30 1241.78 655.02 1241.45 656.78 C 1241.26 656.70 1240.89 656.53 1240.71 656.45 C 1240.18 660.44 1238.54 664.11 1237.36 667.93 C 1236.05 671.14 1234.93 674.44 1234.37 677.87 L 1233.65 677.25 C 1233.31 681.38 1230.90 685.07 1231.22 689.28 C 1239.99 689.16 1248.83 689.85 1257.57 688.88 C 1257.54 687.01 1257.51 685.15 1257.50 683.30 L 1256.61 683.67 C 1256.25 681.56 1255.81 679.47 1255.46 677.37 C 1255.18 677.46 1254.63 677.65 1254.35 677.74 C 1254.26 675.97 1254.16 674.21 1254.11 672.46 C 1253.73 672.52 1252.97 672.63 1252.59 672.69 C 1252.46 671.19 1252.30 669.68 1252.16 668.20 C 1250.82 666.79 1250.50 664.87 1250.27 663.04 C 1249.38 660.87 1248.77 658.61 1248.50 656.30 C 1248.29 656.39 1247.85 656.58 1247.63 656.68 C 1247.25 653.63 1246.67 650.61 1246.31 647.57 C 1245.40 647.55 1244.50 647.54 1243.62 647.53 Z" />
<path fill="#0f0b0f" opacity="1.00" d=" M 213.09 617.25 C 225.83 617.58 238.58 617.10 251.30 617.54 C 251.37 620.05 251.47 622.56 251.61 625.08 C 252.20 626.70 252.75 628.33 253.36 629.96 C 253.40 630.90 253.43 631.85 253.47 632.82 L 254.27 632.40 C 254.59 634.25 254.97 636.10 255.34 637.95 C 255.56 637.84 256.00 637.63 256.22 637.53 C 256.61 639.56 257.09 641.59 257.54 643.62 L 258.36 643.19 C 258.73 644.65 259.15 646.10 259.53 647.56 L 260.51 647.42 C 260.48 648.20 260.42 649.78 260.38 650.56 L 261.45 650.20 C 261.72 651.72 262.03 653.25 262.31 654.79 C 262.58 654.72 263.11 654.57 263.38 654.50 C 263.70 656.12 264.04 657.75 264.38 659.39 C 264.61 659.36 265.09 659.30 265.32 659.27 C 266.11 661.69 266.90 664.11 267.79 666.51 L 268.45 666.20 C 268.76 667.74 269.12 669.28 269.45 670.84 L 270.37 670.29 C 270.64 672.35 271.20 674.39 272.67 675.95 C 272.63 676.23 272.54 676.79 272.49 677.06 C 272.84 677.57 273.55 678.59 273.90 679.10 C 274.21 680.19 274.51 681.29 274.79 682.40 L 275.56 682.28 C 275.88 683.76 276.22 685.22 276.54 686.72 C 276.83 686.65 277.41 686.51 277.70 686.44 C 277.73 687.24 277.78 688.85 277.81 689.65 C 278.14 689.62 278.79 689.57 279.12 689.54 C 279.54 691.60 280.12 693.62 280.67 695.66 L 281.72 695.55 C 281.61 696.06 281.40 697.06 281.30 697.57 L 282.32 697.38 C 282.72 698.85 283.15 700.32 283.56 701.81 L 284.35 701.15 C 284.70 702.70 285.08 704.26 285.42 705.84 L 286.53 705.31 C 286.58 706.14 286.70 707.78 286.75 708.60 C 287.61 708.63 289.34 708.67 290.20 708.69 C 290.26 707.81 290.36 706.06 290.42 705.19 L 291.52 705.81 C 291.87 704.25 292.23 702.70 292.56 701.15 L 293.27 701.59 C 293.88 699.59 294.59 697.64 295.52 695.78 C 295.52 695.62 295.51 695.29 295.51 695.12 C 297.04 693.61 297.39 691.48 297.79 689.48 C 298.11 689.53 298.73 689.64 299.05 689.69 C 299.08 688.87 299.15 687.22 299.18 686.40 C 299.43 686.48 299.93 686.63 300.19 686.70 C 300.85 684.24 301.72 681.85 302.74 679.53 L 303.42 679.80 C 303.74 678.26 304.11 676.73 304.45 675.20 C 304.73 675.28 305.30 675.44 305.58 675.52 C 305.92 673.85 306.25 672.19 306.58 670.53 C 306.91 670.54 307.57 670.55 307.90 670.56 C 307.75 670.05 307.46 669.04 307.31 668.53 L 308.67 668.31 C 308.60 667.86 308.46 666.97 308.39 666.52 L 309.63 666.28 C 309.52 665.79 309.29 664.83 309.18 664.35 L 310.39 664.48 C 310.77 662.73 311.21 661.00 311.62 659.28 C 311.91 659.36 312.50 659.52 312.79 659.60 C 313.03 658.12 313.26 656.66 313.50 655.21 L 314.23 655.70 C 315.01 653.22 315.98 650.80 316.82 648.35 L 317.32 648.61 C 317.68 646.96 317.68 645.03 319.29 644.04 C 319.79 642.33 320.30 640.61 321.26 639.11 C 321.91 637.66 322.54 636.22 323.27 634.83 C 323.34 634.21 323.47 632.99 323.54 632.37 L 324.39 632.72 C 324.85 630.54 325.38 628.38 325.76 626.19 L 326.58 626.89 C 326.97 624.66 327.38 622.45 327.65 620.21 L 328.67 620.76 C 328.64 619.93 328.59 618.28 328.57 617.45 C 340.48 617.35 352.42 617.20 364.33 617.49 C 364.41 619.08 364.49 620.69 364.57 622.30 L 363.19 622.39 L 363.88 623.38 C 360.42 623.73 356.99 624.37 353.52 624.55 C 353.57 624.83 353.67 625.40 353.71 625.69 C 352.65 625.99 351.58 626.30 350.51 626.60 C 350.16 627.65 349.82 628.70 349.48 629.76 L 348.46 629.05 C 347.78 657.62 348.35 686.22 348.56 714.79 L 349.60 714.09 C 349.61 720.95 349.64 727.84 350.46 734.67 L 351.36 734.28 C 351.74 735.44 352.12 736.61 352.51 737.78 C 354.52 738.23 356.56 738.51 358.62 738.74 C 358.53 738.92 358.37 739.27 358.29 739.45 C 360.15 739.76 361.99 740.17 363.85 740.52 C 363.91 742.48 363.76 744.45 363.40 746.39 C 347.45 746.40 331.50 746.37 315.55 746.40 C 315.54 746.14 315.53 745.63 315.52 745.37 C 314.47 743.78 314.99 742.10 315.43 740.46 C 317.17 740.09 318.91 739.68 320.66 739.35 L 320.18 738.51 C 322.01 738.43 323.85 738.34 325.69 738.26 C 325.64 737.82 325.53 736.94 325.48 736.50 C 325.93 736.53 326.83 736.61 327.28 736.65 C 327.35 735.16 327.43 733.68 327.50 732.21 L 328.55 732.83 C 328.57 705.88 328.57 678.92 328.55 651.97 C 328.54 650.07 328.39 648.18 328.18 646.31 C 327.82 647.41 327.49 648.52 327.19 649.65 C 326.86 649.62 326.21 649.58 325.88 649.55 C 325.04 652.37 324.14 655.18 322.96 657.88 C 322.08 659.29 321.53 660.84 321.20 662.47 C 320.98 662.40 320.52 662.25 320.30 662.18 C 320.03 663.60 319.78 665.02 319.53 666.46 C 319.30 666.41 318.85 666.32 318.62 666.27 C 318.25 667.72 317.83 669.16 317.45 670.62 L 316.84 670.56 C 316.54 672.21 316.09 673.88 314.93 675.16 C 314.81 675.81 314.58 677.11 314.47 677.76 L 313.42 677.15 C 313.10 678.72 312.77 680.30 312.47 681.89 L 311.76 681.38 C 311.23 683.38 310.46 685.31 309.51 687.15 C 309.51 687.34 309.50 687.72 309.49 687.92 C 308.08 689.46 307.59 691.48 307.16 693.47 C 306.96 693.42 306.57 693.32 306.38 693.27 C 305.58 695.95 304.35 698.47 303.21 701.02 C 302.84 702.20 302.49 703.39 302.17 704.61 L 301.58 704.22 C 301.10 705.71 300.62 707.22 300.08 708.70 C 298.95 710.09 298.60 711.85 298.20 713.56 C 298.01 713.50 297.62 713.36 297.43 713.29 C 297.05 714.66 296.68 716.05 296.34 717.44 L 295.91 717.52 C 294.80 720.09 293.69 722.70 293.21 725.49 C 292.97 725.43 292.49 725.32 292.25 725.26 C 291.89 727.11 291.56 728.97 291.28 730.85 L 290.36 730.11 C 289.97 731.61 289.58 733.13 289.21 734.66 L 288.73 734.44 C 288.23 735.98 287.69 737.53 287.23 739.10 C 286.51 740.77 285.73 742.42 284.96 744.08 C 284.75 745.20 284.55 746.34 284.36 747.48 C 283.62 747.45 282.15 747.39 281.41 747.36 C 281.33 747.84 281.16 748.80 281.07 749.29 C 280.91 748.91 280.58 748.15 280.41 747.77 C 277.87 746.57 277.81 743.52 277.40 741.13 L 276.79 741.75 C 276.46 740.23 276.12 738.74 275.72 737.26 C 275.70 736.75 275.66 735.72 275.64 735.20 L 274.76 735.65 C 274.32 734.07 273.87 732.52 273.42 730.96 C 272.97 729.80 272.53 728.63 272.11 727.47 L 271.65 727.58 C 271.29 725.81 270.84 724.05 270.46 722.30 C 270.22 722.36 269.73 722.49 269.49 722.55 C 269.17 720.61 268.80 718.70 268.50 716.77 L 267.64 717.47 C 267.19 715.80 266.69 714.15 266.25 712.50 L 265.35 712.49 C 265.37 712.12 265.41 711.39 265.44 711.03 C 264.39 709.26 263.82 707.27 263.37 705.29 C 263.17 705.35 262.79 705.46 262.59 705.51 C 262.20 703.64 261.74 701.76 260.65 700.17 C 260.01 698.72 259.41 697.27 258.81 695.82 C 257.70 693.74 256.97 691.50 256.42 689.23 C 256.19 689.29 255.74 689.42 255.52 689.48 C 255.15 687.75 254.77 686.04 254.41 684.33 L 253.56 684.79 C 253.30 682.72 252.56 680.77 251.47 679.02 C 251.52 678.64 251.64 677.89 251.69 677.52 L 250.82 677.57 C 250.27 676.23 249.72 674.91 248.84 673.77 C 248.30 671.94 247.84 670.09 247.43 668.24 L 246.68 668.64 C 246.25 666.92 245.75 665.22 245.31 663.52 L 244.26 663.48 C 244.35 663.13 244.52 662.44 244.61 662.09 C 243.90 660.73 243.20 659.37 242.50 658.03 C 242.59 657.62 242.79 656.79 242.89 656.37 L 241.59 656.81 C 241.32 654.99 241.02 653.17 240.73 651.38 C 240.35 651.45 239.60 651.59 239.22 651.66 C 239.30 651.30 239.44 650.57 239.52 650.20 C 238.94 648.77 238.37 647.34 237.80 645.91 C 237.24 655.14 237.46 664.41 237.43 673.65 L 236.61 673.39 C 236.33 685.21 236.66 697.05 235.78 708.85 C 235.68 715.91 235.83 722.98 235.72 730.04 C 236.44 732.71 237.52 735.25 238.78 737.71 C 241.08 738.26 243.43 738.53 245.80 738.67 L 245.19 739.54 C 246.84 739.60 248.50 739.65 250.14 739.89 C 250.44 741.74 250.47 743.62 250.57 745.50 C 237.13 745.51 223.69 745.55 210.26 745.48 C 210.25 743.79 210.26 742.10 210.28 740.42 C 212.93 739.77 215.64 739.41 218.36 739.22 L 217.88 738.76 C 220.24 737.87 222.45 736.14 223.03 733.57 C 225.53 725.73 225.20 717.34 225.52 709.20 L 226.60 709.90 C 226.43 695.34 227.60 680.82 227.59 666.26 L 228.52 666.80 C 228.43 661.54 228.52 656.28 228.68 651.02 C 229.16 645.69 230.01 640.24 228.80 634.95 C 228.69 633.89 228.61 632.84 228.55 631.79 C 227.77 630.11 226.89 628.47 225.87 626.94 C 224.62 626.55 223.43 625.96 222.32 625.30 C 222.38 625.14 222.51 624.81 222.57 624.64 C 219.45 624.41 216.38 623.83 213.29 623.43 C 213.18 621.36 213.12 619.30 213.09 617.25 Z" />
<path fill="#0f0b0f" opacity="1.00" d=" M 553.30 617.57 C 569.10 617.23 584.91 617.04 600.70 617.57 L 600.30 618.46 C 604.63 618.22 608.62 620.01 612.81 620.72 L 612.34 621.31 C 615.40 622.09 618.19 623.56 620.98 625.04 C 622.19 626.22 623.44 627.38 624.65 628.60 C 624.99 628.84 625.67 629.33 626.01 629.57 C 626.78 630.40 627.59 631.19 628.44 631.96 C 628.84 633.25 629.25 634.55 629.64 635.87 L 630.58 635.19 C 630.94 636.71 631.31 638.25 631.66 639.80 L 632.31 639.32 C 632.62 640.57 632.97 641.81 633.34 643.05 C 633.45 644.51 633.56 645.99 633.67 647.46 L 634.41 647.45 C 634.73 652.94 633.70 658.34 632.58 663.69 C 632.39 663.67 631.99 663.65 631.80 663.63 C 631.35 665.47 630.84 667.33 629.69 668.88 C 629.10 669.64 628.52 670.40 627.95 671.18 C 627.27 672.13 626.61 673.09 625.96 674.05 C 625.14 674.64 624.32 675.23 623.51 675.83 L 623.66 676.13 C 622.83 676.77 622.01 677.42 621.19 678.08 C 619.69 679.06 618.11 679.93 616.44 680.57 C 616.51 680.78 616.66 681.19 616.73 681.40 C 615.25 681.78 613.78 682.21 612.32 682.63 C 612.62 684.51 612.36 686.92 614.39 687.96 C 614.77 689.27 615.14 690.60 615.51 691.94 L 616.34 691.25 C 616.77 692.70 617.24 694.14 617.68 695.61 L 618.31 695.38 C 619.13 697.17 619.97 698.95 620.76 700.76 L 621.23 700.35 C 621.69 701.66 622.06 703.10 623.22 704.02 C 623.66 705.13 624.09 706.26 624.52 707.41 C 625.63 709.13 626.72 710.87 627.77 712.64 L 628.36 712.34 C 628.65 713.58 628.98 714.83 629.33 716.08 C 630.35 717.11 631.15 718.30 631.87 719.56 L 632.17 719.42 C 633.07 721.32 634.08 723.21 635.67 724.66 C 636.02 725.68 636.38 726.70 636.74 727.74 L 637.63 727.07 C 638.01 728.05 638.40 729.04 638.80 730.04 C 639.86 730.98 640.90 731.96 641.95 732.94 C 642.57 733.63 643.20 734.33 643.82 735.04 C 644.50 735.79 645.17 736.54 645.85 737.31 C 649.35 739.39 653.19 740.72 657.00 742.14 C 657.19 742.98 657.56 744.67 657.75 745.51 C 657.12 745.47 655.86 745.38 655.22 745.34 L 655.83 746.42 C 654.49 746.65 653.17 746.91 651.86 747.20 C 646.62 747.51 641.37 747.34 636.19 746.58 C 636.29 746.37 636.50 745.94 636.60 745.73 C 633.84 745.49 631.13 745.00 628.42 744.49 L 628.77 743.76 C 625.81 742.81 623.31 740.98 621.14 738.82 C 619.33 737.35 617.68 735.71 616.14 733.98 C 615.51 733.25 614.88 732.52 614.27 731.80 C 613.52 730.71 612.81 729.59 612.14 728.49 L 611.69 728.69 C 610.83 727.04 609.96 725.40 609.14 723.75 L 608.70 723.81 C 608.10 722.81 607.48 721.84 606.85 720.88 C 605.57 717.60 603.12 714.93 602.13 711.53 L 601.58 711.79 C 601.21 710.72 600.84 709.65 600.47 708.60 C 599.51 707.27 598.83 705.78 598.27 704.27 L 597.83 704.68 C 597.05 702.56 596.14 700.49 595.30 698.40 L 594.42 698.58 C 594.32 697.79 594.13 696.21 594.03 695.42 C 593.73 695.49 593.12 695.61 592.82 695.68 C 592.30 692.11 589.20 689.92 586.09 688.66 C 583.24 688.75 580.39 688.77 577.56 689.07 C 577.33 699.37 577.52 709.68 577.45 719.99 C 577.63 725.10 577.26 730.28 578.38 735.31 C 579.24 736.25 580.08 737.23 580.92 738.22 C 582.49 738.37 584.09 738.53 585.68 738.66 L 585.24 739.61 C 586.52 739.61 587.81 739.63 589.11 739.66 C 589.75 739.95 591.03 740.52 591.67 740.80 C 591.74 743.10 591.48 745.39 590.84 747.61 C 590.84 747.07 590.84 745.98 590.84 745.43 C 574.24 745.58 557.61 745.54 541.01 745.46 C 540.67 743.65 540.94 741.88 541.43 740.15 C 541.89 740.30 542.81 740.59 543.27 740.74 L 543.49 739.64 C 544.72 739.61 545.95 739.58 547.18 739.56 C 549.87 738.53 552.86 737.78 554.44 735.13 C 555.65 729.82 555.31 724.36 555.43 718.97 C 555.44 692.32 555.48 665.68 555.40 639.04 C 555.14 635.41 555.95 631.43 554.00 628.15 C 553.61 627.90 552.85 627.41 552.47 627.16 L 552.54 626.51 C 549.49 625.65 546.33 625.37 543.18 625.42 L 543.60 624.16 C 543.05 624.23 541.95 624.36 541.41 624.43 C 541.39 622.90 541.39 621.38 541.41 619.87 C 542.01 619.56 543.22 618.93 543.82 618.62 C 547.11 618.55 550.40 618.41 553.70 618.43 L 553.30 617.57 M 577.75 626.64 C 577.16 636.43 577.59 646.25 577.45 656.05 C 577.61 664.15 577.13 672.27 577.76 680.35 C 584.21 680.89 590.73 680.85 597.11 679.66 L 596.67 678.72 C 598.98 678.10 601.18 677.12 603.29 676.00 C 603.44 675.43 603.73 674.31 603.87 673.74 C 604.37 673.63 605.37 673.40 605.86 673.28 C 606.92 670.94 608.01 668.61 608.96 666.22 C 609.46 664.81 609.92 663.38 610.43 661.98 C 610.63 656.45 610.66 650.92 610.40 645.41 L 609.49 645.57 C 609.42 643.87 609.37 642.20 609.32 640.53 C 608.95 640.58 608.20 640.67 607.83 640.72 C 607.76 639.91 607.63 638.29 607.56 637.48 C 607.35 637.55 606.92 637.71 606.71 637.79 C 606.15 636.79 605.59 635.81 605.01 634.85 C 603.45 632.99 601.83 631.19 600.17 629.44 C 599.20 629.08 598.24 628.74 597.29 628.41 L 597.57 627.61 C 596.96 627.54 595.74 627.39 595.13 627.32 C 594.05 626.83 592.96 626.36 591.88 625.92 C 587.18 625.40 582.29 625.00 577.75 626.64 Z" />
<path fill="#0f0b0f" opacity="1.00" d=" M 697.19 617.50 C 710.48 617.22 723.78 617.23 737.07 617.32 C 740.08 617.52 743.29 617.08 746.08 618.48 C 747.51 618.56 748.96 618.63 750.42 618.70 L 750.25 619.32 C 752.45 619.74 754.62 620.28 756.84 620.66 L 756.43 621.38 C 757.87 621.75 759.31 622.16 760.76 622.60 C 761.56 623.53 762.57 624.21 763.67 624.81 L 763.54 625.70 C 764.05 625.63 765.08 625.51 765.60 625.44 C 765.67 625.96 765.82 626.98 765.89 627.50 C 766.17 627.49 766.74 627.48 767.02 627.48 C 767.84 628.31 768.69 629.14 769.56 629.96 C 769.46 630.33 769.26 631.07 769.16 631.43 L 770.20 631.27 C 772.21 634.78 773.57 638.63 773.72 642.71 L 774.67 642.06 C 774.72 646.31 774.75 650.57 774.63 654.82 L 773.57 654.18 C 773.23 656.41 772.82 658.63 772.48 660.88 L 771.74 660.23 C 770.77 662.92 769.07 665.29 766.64 666.84 C 766.17 667.62 765.71 668.42 765.27 669.22 C 763.92 670.06 762.58 670.91 761.24 671.75 L 761.65 672.58 C 760.87 672.67 759.31 672.85 758.53 672.95 C 758.57 673.24 758.64 673.84 758.68 674.14 C 757.94 674.63 756.47 675.62 755.73 676.12 C 756.91 676.26 759.28 676.53 760.46 676.67 C 760.47 676.88 760.50 677.30 760.51 677.50 C 762.27 677.88 764.03 678.30 765.81 678.67 L 765.22 679.61 C 766.11 679.78 767.89 680.12 768.78 680.29 C 768.67 680.50 768.44 680.91 768.33 681.12 C 773.81 683.70 778.68 688.67 780.39 694.57 C 780.62 694.49 781.08 694.35 781.32 694.27 C 781.67 696.39 782.15 698.49 782.56 700.62 C 782.77 700.59 783.20 700.53 783.41 700.50 C 783.56 706.56 783.59 712.62 783.42 718.68 L 782.57 718.33 C 782.22 719.93 781.82 721.54 781.44 723.15 C 780.14 724.66 779.65 726.60 779.20 728.50 C 778.94 728.51 778.43 728.53 778.18 728.54 C 777.70 729.85 777.05 731.08 775.84 731.86 C 775.29 732.58 774.75 733.31 774.22 734.06 C 772.91 735.21 771.61 736.38 770.32 737.55 C 769.32 737.90 768.33 738.26 767.34 738.64 L 767.88 739.51 C 766.68 739.84 765.49 740.18 764.31 740.52 C 764.31 740.69 764.33 741.03 764.33 741.20 C 762.19 741.92 760.07 742.69 757.95 743.44 C 757.56 743.37 756.77 743.23 756.37 743.16 L 756.81 744.46 C 747.25 745.44 737.65 745.84 728.03 745.61 C 713.45 745.37 698.86 745.63 684.27 745.48 C 684.31 743.82 684.36 742.17 684.43 740.53 C 686.83 739.84 689.30 739.41 691.81 739.41 L 691.28 738.62 C 694.00 738.86 695.97 737.22 697.48 735.18 C 697.45 734.49 697.39 733.12 697.36 732.43 C 697.62 732.46 698.16 732.52 698.42 732.55 C 698.69 698.58 698.66 664.60 698.42 630.62 L 697.74 630.86 C 697.43 629.37 696.97 627.93 695.72 626.97 L 695.68 626.57 C 693.86 626.19 692.03 625.78 690.21 625.46 C 690.30 625.26 690.47 624.86 690.56 624.66 C 688.60 624.61 686.65 624.54 684.71 624.45 C 684.68 622.85 684.66 621.26 684.66 619.67 C 686.37 619.26 688.10 618.86 689.84 618.52 C 692.47 618.48 695.10 618.40 697.74 618.41 L 697.19 617.50 M 720.56 626.72 C 720.45 628.65 720.35 630.58 720.32 632.53 L 719.63 632.56 C 719.70 639.89 719.73 647.22 719.61 654.55 L 720.35 654.46 C 720.35 655.48 720.36 657.52 720.36 658.54 L 719.45 658.47 C 719.60 660.83 719.95 663.18 720.47 665.51 L 719.34 665.56 C 719.59 666.40 720.11 668.10 720.36 668.94 C 720.40 670.17 720.44 671.40 720.49 672.65 C 726.14 673.36 731.92 673.37 737.54 672.35 C 739.05 671.26 740.87 670.78 742.63 670.24 L 742.65 669.23 C 743.00 669.28 743.68 669.36 744.02 669.40 C 744.73 668.64 745.45 667.90 746.20 667.17 C 749.13 663.96 750.98 659.90 750.63 655.47 C 750.89 655.54 751.42 655.68 751.68 655.75 C 751.75 651.86 751.83 647.97 751.79 644.09 L 750.71 644.69 C 750.46 642.03 750.70 639.13 749.06 636.87 C 748.40 635.89 747.81 634.89 747.25 633.88 C 746.29 632.22 744.87 630.98 743.11 630.27 L 743.66 629.68 C 741.48 628.69 739.35 627.63 737.23 626.53 C 735.16 626.31 733.13 625.96 731.11 625.56 C 727.54 625.38 723.92 625.40 720.56 626.72 M 720.52 682.18 C 719.59 690.90 718.91 699.87 720.53 708.54 L 719.45 708.46 C 720.87 715.47 719.98 722.66 720.91 729.72 C 722.23 731.49 723.55 733.28 724.94 735.01 C 726.07 735.69 727.21 736.39 728.30 737.16 C 733.39 738.52 738.65 738.30 743.81 737.53 L 743.17 736.74 C 745.14 736.44 747.08 735.93 748.97 735.27 C 750.22 734.08 751.57 733.01 752.97 732.00 C 754.19 730.89 755.17 729.59 755.97 728.15 C 756.75 726.92 757.31 725.58 757.74 724.21 C 757.94 724.31 758.35 724.51 758.55 724.62 C 760.24 716.59 759.87 708.39 758.99 700.30 C 758.69 700.37 758.09 700.50 757.79 700.57 C 757.50 697.32 755.93 694.50 754.02 691.95 C 752.77 690.74 751.62 689.45 750.43 688.21 C 749.41 687.52 748.36 686.87 747.34 686.23 L 747.55 685.72 C 746.27 685.23 745.01 684.74 743.75 684.28 C 741.77 683.62 739.82 682.95 737.94 682.07 C 732.17 681.47 726.23 680.78 720.52 682.18 Z" />
<path fill="#0f0b0f" opacity="1.00" d=" M 815.41 617.48 C 843.05 617.24 870.71 617.46 898.36 617.38 C 899.59 621.64 899.58 626.09 899.44 630.50 C 899.67 630.54 900.12 630.61 900.35 630.65 C 900.47 635.40 900.98 640.13 900.84 644.89 C 899.12 645.76 897.39 646.68 895.52 647.19 C 896.78 646.54 898.10 646.00 899.44 645.51 C 897.72 645.47 896.08 645.12 894.47 644.61 C 894.33 642.85 894.16 641.09 894.04 639.35 C 893.74 639.39 893.15 639.45 892.86 639.49 C 892.41 637.49 891.86 635.52 891.35 633.55 L 890.35 633.65 L 890.78 632.65 C 889.66 631.76 888.56 630.88 887.42 630.05 C 887.47 629.80 887.56 629.31 887.60 629.06 C 886.06 628.58 884.57 628.11 883.07 627.57 C 882.36 627.51 880.93 627.38 880.22 627.32 L 880.55 626.43 C 870.96 626.30 861.36 626.16 851.77 626.44 C 851.03 627.85 850.12 629.27 850.34 630.96 C 850.31 645.52 850.21 660.09 850.38 674.66 C 859.18 674.74 867.99 674.77 876.80 674.59 L 876.26 673.78 C 878.50 673.53 880.26 672.26 881.70 670.60 C 882.06 668.07 882.39 665.51 883.34 663.13 C 883.43 661.95 883.53 660.78 883.64 659.62 C 884.72 659.33 885.82 659.04 886.93 658.75 C 888.06 659.07 889.21 659.38 890.37 659.70 C 890.37 661.05 890.40 662.41 890.44 663.78 L 889.42 663.14 C 889.22 675.67 889.41 688.21 889.47 700.74 C 887.51 700.72 885.57 700.68 883.64 700.61 C 883.57 698.85 883.50 697.08 883.49 695.33 L 882.68 695.68 C 882.45 692.79 882.01 689.93 881.53 687.08 L 880.61 687.65 C 880.37 687.13 879.89 686.07 879.65 685.55 C 874.25 683.71 868.52 684.23 862.93 684.14 C 858.74 684.12 854.55 684.12 850.37 684.36 C 850.24 698.28 850.23 712.20 850.44 726.13 C 851.31 728.32 851.85 730.62 852.54 732.88 C 853.52 733.53 854.35 734.34 855.05 735.31 C 860.13 737.33 865.70 736.38 871.02 736.71 C 877.32 736.50 883.74 737.18 889.94 735.84 C 890.58 735.74 891.86 735.54 892.50 735.45 L 892.26 734.80 C 893.94 734.05 895.56 733.16 897.02 732.02 C 898.22 730.87 899.22 729.55 900.12 728.16 C 901.06 726.73 902.05 725.34 903.02 723.93 C 903.85 721.57 904.79 719.26 905.81 716.98 C 906.33 716.86 907.37 716.61 907.88 716.49 L 907.31 715.56 C 907.94 715.54 909.18 715.51 909.81 715.50 L 909.19 716.56 C 910.27 716.86 911.37 717.18 912.48 717.51 C 911.60 720.41 911.43 723.44 911.41 726.45 C 911.14 726.41 910.59 726.33 910.32 726.29 C 909.99 728.72 909.66 731.15 909.52 733.61 C 909.28 733.53 908.80 733.36 908.56 733.28 C 908.31 735.93 907.74 738.57 906.58 740.99 C 906.45 742.04 906.34 743.10 906.25 744.17 C 905.77 744.50 904.81 745.18 904.33 745.51 C 873.34 745.49 842.34 745.55 811.36 745.45 C 811.39 743.82 811.44 742.21 811.51 740.61 C 815.25 739.94 819.01 739.40 822.82 739.20 C 824.51 737.96 826.17 736.66 827.70 735.21 C 827.54 734.77 827.23 733.89 827.08 733.45 C 827.42 733.47 828.09 733.51 828.43 733.53 C 828.91 716.01 828.67 698.49 828.72 680.97 C 828.65 663.76 828.94 646.55 828.39 629.35 L 827.74 629.71 C 826.93 628.26 826.11 626.82 825.31 625.39 L 824.22 625.83 C 824.28 625.50 824.38 624.83 824.44 624.49 C 823.58 624.40 821.88 624.22 821.03 624.13 C 819.45 623.82 817.84 623.63 816.27 623.46 L 816.78 622.22 C 816.36 622.32 815.53 622.52 815.11 622.62 C 815.18 620.89 815.29 619.19 815.41 617.48 Z" />
<path fill="#0f0b0f" opacity="1.00" d=" M 944.65 617.48 C 961.88 617.24 979.14 617.33 996.37 617.43 C 996.36 618.26 996.33 619.92 996.31 620.75 C 996.77 620.67 997.69 620.52 998.15 620.44 C 997.02 621.32 995.98 622.30 995.18 623.50 C 992.23 623.99 989.27 624.45 986.29 624.64 L 986.75 625.21 C 984.68 625.96 983.35 627.40 983.36 629.67 L 982.54 629.12 C 981.24 639.69 982.07 650.37 981.83 661.00 C 981.83 680.67 981.83 700.34 981.84 720.01 C 981.83 722.95 982.20 725.87 982.43 728.81 C 982.64 728.71 983.06 728.51 983.27 728.41 C 983.36 730.35 984.03 732.20 984.93 733.92 C 990.14 737.88 996.92 736.28 1003.00 736.72 C 1009.67 736.39 1016.63 737.53 1023.06 735.20 C 1024.58 733.30 1026.42 731.68 1028.31 730.15 C 1028.76 728.91 1029.23 727.69 1029.73 726.48 C 1029.92 726.55 1030.30 726.68 1030.49 726.75 C 1031.04 724.66 1031.59 722.52 1033.06 720.86 C 1033.31 719.87 1033.56 718.88 1033.81 717.90 C 1034.29 717.57 1035.26 716.89 1035.74 716.55 C 1037.30 716.63 1038.88 716.72 1040.47 716.83 C 1040.41 718.70 1040.35 720.58 1040.32 722.47 C 1039.95 722.56 1039.20 722.73 1038.83 722.82 C 1038.71 726.53 1037.98 730.18 1037.52 733.86 L 1036.83 733.41 C 1036.45 735.82 1035.85 738.19 1035.37 740.58 L 1034.50 740.67 C 1034.60 741.20 1034.81 742.26 1034.92 742.79 L 1033.68 742.40 C 1033.67 743.17 1033.65 744.72 1033.64 745.49 C 1003.91 745.57 974.16 745.42 944.42 745.54 C 944.49 743.67 944.50 741.81 944.82 739.98 C 948.60 739.65 952.23 738.44 956.02 738.04 C 957.04 737.01 958.09 736.00 959.16 735.01 C 959.30 732.44 959.47 729.88 959.53 727.31 L 960.56 727.71 C 960.52 696.20 960.73 664.68 960.46 633.16 L 959.47 633.84 C 959.32 631.61 959.10 629.40 958.60 627.22 L 957.25 627.67 C 957.29 627.24 957.37 626.38 957.41 625.95 C 954.17 624.48 950.66 623.90 947.15 623.61 C 947.24 623.41 947.43 623.02 947.53 622.82 C 946.82 622.72 945.42 622.53 944.72 622.44 C 944.63 620.78 944.61 619.13 944.65 617.48 Z" />
<path fill="#0f0b0f" opacity="1.00" d=" M 1063.97 617.46 C 1081.02 617.26 1098.08 617.35 1115.13 617.41 C 1115.48 618.82 1115.82 620.28 1116.73 621.48 C 1116.31 621.50 1115.48 621.54 1115.07 621.56 C 1115.18 621.99 1115.40 622.85 1115.51 623.28 C 1113.98 623.56 1112.45 623.86 1110.96 624.22 C 1110.27 624.20 1108.88 624.16 1108.18 624.14 L 1108.39 625.17 C 1106.95 625.39 1105.51 625.60 1104.09 625.79 C 1102.13 628.47 1101.08 631.68 1101.36 635.02 C 1101.24 666.24 1101.14 697.47 1101.44 728.69 C 1101.63 728.65 1101.99 728.56 1102.17 728.52 C 1102.56 730.02 1103.02 731.53 1103.49 733.04 C 1104.30 733.80 1105.12 734.58 1105.94 735.37 C 1108.14 736.12 1110.43 736.55 1112.78 736.62 L 1112.16 737.54 C 1120.34 737.59 1128.52 737.60 1136.70 737.47 L 1136.11 736.54 C 1140.04 736.88 1143.11 734.33 1145.92 731.96 C 1146.58 730.88 1147.21 729.79 1147.82 728.68 C 1147.95 728.69 1148.22 728.70 1148.36 728.71 C 1149.11 726.92 1149.94 725.17 1150.77 723.42 L 1151.41 723.75 C 1151.72 722.21 1152.05 720.67 1152.40 719.15 L 1153.47 719.82 C 1153.55 719.01 1153.70 717.40 1153.77 716.60 C 1155.72 716.65 1157.67 716.72 1159.64 716.82 C 1159.47 718.88 1159.31 720.96 1158.92 723.02 C 1158.70 724.50 1158.54 726.01 1158.39 727.52 L 1157.68 727.40 C 1157.62 729.76 1157.11 732.07 1155.95 734.14 C 1155.77 735.61 1155.62 737.08 1155.51 738.57 C 1155.27 738.49 1154.78 738.34 1154.53 738.27 C 1154.20 740.63 1153.77 742.98 1153.44 745.35 C 1123.45 745.71 1093.43 745.42 1063.43 745.47 C 1063.43 743.82 1063.44 742.17 1063.46 740.54 C 1067.77 739.52 1072.13 738.71 1076.43 737.58 C 1077.47 735.90 1078.47 734.17 1078.74 732.18 L 1079.35 732.59 C 1079.80 708.06 1079.46 683.52 1079.56 658.99 C 1079.56 649.53 1079.62 640.07 1079.32 630.62 C 1078.99 630.60 1078.35 630.55 1078.03 630.52 L 1078.73 629.12 C 1077.54 627.55 1076.22 626.08 1074.48 625.13 C 1074.53 624.99 1074.65 624.71 1074.70 624.57 C 1071.22 624.30 1067.79 623.68 1064.33 623.45 L 1064.60 621.94 C 1063.83 621.80 1063.08 621.65 1062.36 621.50 C 1063.23 620.30 1063.71 618.90 1063.97 617.46 Z" />
</g>
</svg>
