<svg width="185" height="35" viewBox="0 0 185 35" fill="none" xmlns="http://www.w3.org/2000/svg">
<g clip-path="url(#clip0_14_21)">
<path d="M84.126 12.678C84.147 12.067 84.159 11.914 84.062 11.553C83.987 11.274 83.404 11.245 83.215 11.285C83.027 11.325 82.557 11.359 82.272 11.5C81.987 11.64 81.5 12.066 81.032 12.126C80.565 12.186 80.411 12.289 80.021 12.307C79.858 12.266 79.787 12.26 79.693 12.286C79.659 12.295 79.635 12.291 79.577 12.369C79.524 12.44 79.539 12.417 79.519 12.698C79.507 12.868 79.508 14.231 79.521 14.909H84.084C84.1 14.076 84.114 13.009 84.126 12.678V12.678ZM93.825 1.64399C93.808 1.51799 93.615 1.40899 93.413 1.34999C93.211 1.29099 93.127 1.39199 93.068 1.48499C93.009 1.57699 93.026 1.87999 93.026 1.87999C93.017 2.11499 93.036 2.20899 92.874 2.19999C92.723 2.19099 92.782 2.09899 92.756 1.98099C92.731 1.86399 92.756 1.63599 92.765 1.39199C92.774 1.14899 92.723 1.03099 92.614 0.946989C92.505 0.862989 92.328 0.811988 92.118 0.786988C91.908 0.761988 91.866 0.862988 91.832 0.954988C91.798 1.04799 91.781 1.47699 91.748 1.57699C91.714 1.67799 91.639 1.69399 91.487 1.66899C91.335 1.64399 91.302 1.59299 91.294 1.51799C91.285 1.44199 91.294 0.726988 91.252 0.583988C91.21 0.440988 91.05 0.406988 90.882 0.365988C90.6505 0.309648 90.4141 0.275824 90.176 0.264988C89.814 0.238988 89.823 0.381989 89.789 0.457989C89.755 0.533988 89.772 0.919989 89.764 1.07199C89.755 1.22299 89.68 1.28199 89.529 1.29899C89.377 1.31599 89.226 1.34999 89.066 1.31599C88.906 1.28199 88.898 1.20699 88.89 1.13099C88.881 1.05499 88.898 0.886988 88.89 0.726988C88.881 0.566988 88.73 0.473989 88.57 0.457989C88.41 0.440988 87.965 0.474988 87.502 0.541988C87.039 0.608988 87.064 0.794989 87.056 0.877989C87.047 0.961989 87.064 1.71899 87.022 1.76099C86.98 1.80299 86.879 1.86199 86.618 1.93799C86.357 2.01399 86.357 1.95499 86.315 1.88799C86.273 1.82099 86.306 1.75299 86.289 1.49299C86.272 1.23199 86.112 1.21499 86.112 1.21499C85.995 1.18999 85.977 1.16499 85.524 1.22399C85.07 1.28299 84.893 1.58599 84.893 1.58599C84.893 1.58599 84.876 1.62799 84.893 1.82999C84.91 2.03099 84.927 2.35999 84.784 2.44299C84.696 2.49499 84.531 2.45999 84.489 2.40099C84.447 2.34199 84.43 2.15699 84.439 2.07299C84.448 1.98899 84.388 1.84599 84.287 1.82099C84.186 1.79499 83.913 1.81699 83.913 1.81699C83.643 1.83199 83.5 1.95999 83.5 1.95999C83.5 1.95999 83.471 2.08999 83.471 2.24999C83.471 2.40999 83.429 3.22599 83.421 3.68799C83.412 4.14999 83.405 5.23399 83.412 5.68099C83.421 6.20299 83.614 6.55599 83.614 6.55599C83.706 6.77399 84.068 7.18599 84.279 7.43899C84.489 7.69099 84.607 8.16199 84.607 8.16199C84.666 8.43099 84.683 8.98599 84.683 9.47399C84.683 9.96099 84.708 13.838 84.708 14.351L84.71 14.908H92.315C92.336 14.059 92.366 12.865 92.377 12.602C92.394 12.206 92.432 10.315 92.444 9.73399C92.461 8.94299 92.553 8.51499 92.612 8.19499C92.671 7.87599 93.201 7.09399 93.201 7.09399C93.318 6.86699 93.764 6.11799 93.806 5.88299C93.835 5.72399 93.823 4.44499 93.823 4.09199C93.823 3.73899 93.842 1.76999 93.825 1.64399V1.64399Z" fill="#A41F35"/>
<path d="M102.075 9.39899C102.183 9.13999 102.259 8.52699 102.253 8.32199C102.248 8.11699 102.226 5.85899 102.226 5.85899C102.215 5.70199 102.199 5.59299 102.096 5.48999C101.993 5.38699 101.88 5.35999 101.718 5.34999C101.556 5.33899 101.495 5.40899 101.425 5.53399C101.355 5.65799 101.392 5.89199 101.387 5.94099C101.382 5.98999 101.354 6.01099 101.279 6.01699C101.187 6.01962 101.096 5.99302 101.02 5.94099C100.944 5.88699 100.912 5.82699 100.912 5.75099C100.912 5.67599 100.891 5.33399 100.885 5.19799C100.88 5.06299 100.803 4.98699 100.651 4.91699C100.5 4.84699 100.305 4.87399 100.305 4.87399C100.178 4.8658 100.051 4.89169 99.937 4.94899C99.844 4.99799 99.811 5.05699 99.818 5.20299C99.829 5.42499 99.775 5.53299 99.71 5.58199C99.645 5.63099 99.462 5.65899 99.348 5.67499C99.2485 5.68956 99.1472 5.68378 99.05 5.65799C98.973 5.63699 98.969 5.56499 98.958 5.45099C98.947 5.33699 98.952 5.16399 98.931 5.07199C98.909 4.97999 98.791 4.92599 98.628 4.92099C98.466 4.91499 98.466 4.88299 98.119 4.96399C97.771 5.04499 97.735 5.24999 97.708 5.38499C97.681 5.52099 97.692 5.55299 97.692 5.55299C97.687 5.69499 97.697 6.01399 97.697 6.01399C97.697 6.01399 97.583 6.06299 97.502 6.08899C97.421 6.11599 97.323 6.11099 97.155 6.11099C96.987 6.11099 97.02 6.07299 97.009 5.97599C96.998 5.87799 96.976 5.49299 96.928 5.44499C96.879 5.39599 96.766 5.39099 96.641 5.39599C96.5224 5.3971 96.4055 5.42478 96.299 5.47699C96.2369 5.50339 96.1831 5.54601 96.1431 5.60038C96.1032 5.65474 96.0786 5.71885 96.072 5.78599C96.061 5.89399 96.083 6.36499 96.05 6.40799C96.017 6.45099 95.92 6.48499 95.823 6.48499C95.725 6.48499 95.704 6.46199 95.671 6.39199C95.639 6.32199 95.65 6.24599 95.65 6.15999C95.6538 6.05133 95.6249 5.94403 95.567 5.85199C95.501 5.76599 95.416 5.75499 95.292 5.80899C95.2344 5.83915 95.184 5.88124 95.144 5.93246C95.1039 5.98367 95.0753 6.04283 95.06 6.10599C95.0458 6.22624 95.0458 6.34774 95.06 6.46799C95.071 6.61399 95.055 6.65899 95.027 6.67999C95 6.70299 94.951 6.69199 94.913 6.66499C94.876 6.63799 94.881 6.60599 94.876 6.49199C94.871 6.37799 94.822 6.19399 94.778 6.15599C94.735 6.11799 94.68 6.07499 94.539 6.10699C94.399 6.13899 94.329 6.33399 94.312 6.38799C94.296 6.44199 94.317 6.94599 94.323 7.07599C94.329 7.20599 94.321 7.93699 94.307 8.24099C94.285 8.71099 94.366 8.98699 94.404 9.07999C94.442 9.17299 94.626 9.37699 94.626 9.37699C94.826 9.58299 95.629 10.092 95.629 10.092C95.868 10.222 96.326 10.519 96.369 10.552C96.412 10.585 96.364 10.628 96.337 10.628C96.2631 10.6187 96.1906 10.6006 96.121 10.574C95.7681 10.4582 95.4144 10.3449 95.06 10.234C94.7074 10.1247 94.3557 10.0124 94.005 9.89699C93.827 9.83599 93.441 9.75099 93.279 9.75699C93.117 9.76199 93.133 10.158 93.127 10.413C93.122 10.667 93.111 12.828 93.111 12.828L93.102 14.911H101.287C101.295 13.902 101.306 12.261 101.306 12.054C101.306 11.735 101.317 11.085 101.355 10.727C101.393 10.369 101.523 10.262 101.593 10.116C101.663 9.96799 101.989 9.60699 102.075 9.39899V9.39899Z" fill="#A41F35"/>
<path d="M9.867 29.672C9.39 30.684 8.437 31.339 7.087 31.339C5.42 31.339 3.772 30.208 3.772 27.726C3.772 25.602 5.043 24.034 7.028 24.034C8.398 24.034 9.351 24.649 9.926 25.841C9.966 25.94 9.986 25.98 10.105 25.94L13.063 24.789C13.142 24.749 13.222 24.67 13.122 24.431C12.229 22.406 10.224 20.64 6.948 20.64C3.057 20.639 0 23.637 0 27.706C0 31.518 2.819 34.714 7.047 34.714C8.37414 34.7249 9.67436 34.3396 10.7813 33.6075C11.8883 32.8753 12.7517 31.8296 13.261 30.604C13.301 30.485 13.281 30.386 13.083 30.346L10.105 29.532C9.946 29.493 9.926 29.573 9.867 29.672V29.672ZM27.238 34.099C25.054 29.712 22.354 24.193 20.448 20.48C20.428 20.44 19.992 20.42 19.972 20.48C18.165 23.855 15.286 29.711 13.222 34.099C13.142 34.298 13.162 34.377 13.321 34.377H16.617C16.875 34.377 16.915 34.317 16.974 34.159C17.173 33.682 17.431 33.007 17.669 32.452H22.473C22.672 32.948 22.969 33.683 23.208 34.219C23.268 34.358 23.347 34.378 23.446 34.378H27.158C27.337 34.377 27.357 34.357 27.238 34.099V34.099ZM21.421 29.871H18.661L20.011 26.853L21.421 29.871V29.871ZM27.851 31.677C28.526 33.622 30.214 34.714 32.914 34.714C36.031 34.714 38.552 33.364 38.552 30.307C38.552 27.825 37.083 26.476 34.542 26.118C34.284 26.078 34.065 26.038 33.886 26.019C32.1 25.721 31.365 25.344 31.365 24.431C31.365 23.696 31.802 23.18 33.191 23.18C34.223 23.18 35.136 23.955 35.415 24.748C35.454 24.847 35.514 24.887 35.653 24.828L37.976 23.895C38.095 23.855 38.175 23.776 38.115 23.558C37.599 21.89 35.971 20.64 33.331 20.64C29.817 20.64 28.05 22.447 28.05 25.027C28.05 27.489 29.718 28.839 32.12 29.077C32.259 29.097 32.457 29.117 32.596 29.137C34.422 29.355 34.998 29.872 34.998 30.685C34.998 31.598 34.363 32.015 32.993 32.015C31.742 32.015 30.829 31.141 30.591 30.407C30.551 30.248 30.551 30.248 30.373 30.308L27.93 31.3C27.792 31.36 27.772 31.458 27.851 31.677V31.677ZM44.388 21.096C44.388 20.937 44.368 20.917 44.189 20.917H40.893C40.714 20.917 40.714 20.897 40.714 21.096V34.198C40.714 34.397 40.714 34.377 40.893 34.377H44.189C44.368 34.377 44.388 34.357 44.388 34.198V21.096V21.096ZM58.213 34.734V20.933C58.172 20.9197 58.129 20.914 58.086 20.916H55.068C54.909 20.916 54.909 20.936 54.909 21.154V27.11C54.909 27.11 50.045 22.603 47.206 20.578C47.154 20.547 47.097 20.529 47.053 20.549V34.314C47.0695 34.3331 47.09 34.3484 47.1129 34.3589C47.1358 34.3694 47.1608 34.3749 47.186 34.375H50.184C50.363 34.375 50.363 34.375 50.363 34.196V28.121C50.363 28.121 55.048 32.429 58.046 34.672C58.129 34.735 58.177 34.745 58.213 34.734V34.734ZM74.266 27.687C74.266 23.796 71.228 20.64 67.218 20.64C63.208 20.64 60.171 23.796 60.171 27.687C60.171 31.578 63.209 34.715 67.218 34.715C71.228 34.714 74.266 31.578 74.266 27.687V27.687ZM70.553 27.687C70.553 29.732 69.322 31.32 67.217 31.32C65.073 31.32 63.882 29.732 63.882 27.687C63.882 25.642 65.073 24.034 67.217 24.034C69.322 24.034 70.553 25.642 70.553 27.687ZM89.004 30.829C91.509 30.535 93.408 29.263 93.408 26.053C93.408 23.039 91.666 20.964 88.75 20.964H82.878C82.8 20.964 82.702 20.945 82.702 21.14V34.057C82.702 34.253 82.702 34.233 82.878 34.233H86.049C86.206 34.233 86.225 34.214 86.225 34.057V30.906C86.225 30.906 88.437 30.888 89.004 30.829V30.829ZM87.83 23.881C89.024 23.881 89.787 24.625 89.787 25.936C89.787 27.052 89.239 27.913 87.869 27.972L86.225 28.031V23.882H87.83V23.881V23.881ZM104.329 34.234C104.525 34.234 104.544 34.195 104.544 33.96V31.435C104.544 31.18 104.544 31.18 104.329 31.18L98.594 31.239V28.97H104.075C104.251 28.97 104.27 28.931 104.27 28.696V26.308C104.27 26.073 104.251 26.034 104.075 26.034H98.594V23.822L104.192 23.881C104.348 23.881 104.407 23.783 104.407 23.607V21.219C104.407 20.984 104.387 20.964 104.192 20.964H95.345C95.15 20.964 95.169 20.984 95.169 21.16V33.96C95.169 34.195 95.189 34.234 95.385 34.234H104.329V34.234ZM106.971 20.964C106.912 20.964 106.815 20.945 106.815 21.14V34.057C106.815 34.253 106.815 34.233 106.971 34.233H110.181C110.318 34.233 110.337 34.214 110.337 34.057V30.358L112.588 30.319C112.588 30.319 114.017 32.57 114.682 33.842C114.858 34.194 114.937 34.233 115.093 34.233H118.557C118.772 34.233 118.831 34.096 118.597 33.704C117.461 31.864 116.346 29.887 115.837 29.085C117.031 28.518 117.657 27.245 117.657 25.445C117.657 23.037 116.052 20.963 113.038 20.963H106.971V20.964ZM110.338 27.717V23.881H112.276C113.411 23.881 113.94 24.664 113.94 25.701C113.94 26.836 113.353 27.619 112.296 27.658L110.338 27.717V27.717ZM128.479 32.336C128.674 32.826 128.968 33.549 129.203 34.078C129.262 34.215 129.34 34.234 129.438 34.234H133.098C133.274 34.234 133.294 34.215 133.176 33.96C131.023 29.635 128.361 24.194 126.482 20.534C126.462 20.494 126.032 20.475 126.012 20.534C124.231 23.861 121.393 29.635 119.357 33.96C119.279 34.156 119.298 34.234 119.455 34.234H122.704C122.959 34.234 122.998 34.175 123.056 34.019C123.252 33.549 123.506 32.884 123.741 32.336H128.479V32.336ZM124.721 29.792L126.052 26.817L127.442 29.792H124.721ZM143.471 31.22C143.471 31.064 143.452 31.025 143.295 31.025L138.382 31.123V21.141C138.382 20.985 138.363 20.965 138.206 20.965H135.035C134.859 20.965 134.859 20.946 134.859 21.141V34.058C134.859 34.254 134.859 34.234 135.035 34.234H143.314C143.47 34.234 143.47 34.215 143.47 34.058L143.471 31.22V31.22ZM153.277 32.336C153.472 32.826 153.766 33.549 154.001 34.078C154.06 34.215 154.138 34.234 154.236 34.234H157.896C158.072 34.234 158.092 34.215 157.974 33.96C155.821 29.635 153.159 24.194 151.28 20.534C151.261 20.494 150.83 20.475 150.81 20.534C149.029 23.861 146.191 29.635 144.155 33.96C144.077 34.156 144.096 34.234 144.253 34.234H147.502C147.757 34.234 147.796 34.175 147.854 34.019C148.05 33.549 148.305 32.884 148.539 32.336H153.277V32.336ZM149.519 29.792L150.85 26.817L152.24 29.792H149.519V29.792ZM164.804 34.234C168.679 34.234 171.263 31.846 171.263 27.599C171.263 23.293 169.012 20.964 165.254 20.964H159.813C159.676 20.964 159.657 21.004 159.657 21.16V34.058C159.657 34.254 159.677 34.234 159.813 34.234H164.804V34.234ZM163.102 23.744H164.942C166.644 23.744 167.604 25.408 167.604 27.541C167.604 29.831 166.86 31.416 164.903 31.416H163.103V23.744H163.102ZM180.228 32.336C180.424 32.826 180.718 33.549 180.952 34.078C181.011 34.215 181.089 34.234 181.187 34.234H184.847C185.023 34.234 185.042 34.215 184.925 33.96C182.772 29.635 180.11 24.194 178.231 20.534C178.211 20.494 177.781 20.475 177.761 20.534C175.98 23.861 173.142 29.635 171.107 33.96C171.029 34.156 171.048 34.234 171.205 34.234H174.454C174.709 34.234 174.748 34.175 174.806 34.019C175.002 33.549 175.256 32.884 175.491 32.336H180.228V32.336ZM176.471 29.792L177.802 26.817L179.192 29.792H176.471V29.792Z" fill="white"/>
</g>
<defs>
<clipPath id="clip0_14_21">
<rect width="185" height="35" fill="white"/>
</clipPath>
</defs>
</svg>
