<svg width="185" height="25" viewBox="0 0 185 25" fill="none" xmlns="http://www.w3.org/2000/svg">
<g clip-path="url(#clip0_14_25)">
<path d="M42.256 6.463C42.255 6.407 42.161 6.385 42.161 6.385C40.525 5.905 39.149 4.599 38.735 3.063L38.659 2.814C38.659 2.814 38.646 2.748 38.599 2.748C38.551 2.748 38.538 2.814 38.538 2.814L38.462 3.064C38.048 4.6 36.671 5.906 35.036 6.386C35.036 6.386 34.941 6.407 34.941 6.463V6.464C34.941 6.52 35.036 6.541 35.036 6.541C36.671 7.021 38.048 8.327 38.462 9.863L38.538 10.113C38.538 10.113 38.551 10.179 38.599 10.179C38.647 10.178 38.659 10.113 38.659 10.113L38.735 9.863C39.149 8.327 40.525 7.021 42.161 6.541C42.161 6.541 42.256 6.519 42.256 6.463V6.463ZM45.659 2.066C45.658 2.037 45.61 2.026 45.61 2.026C44.764 1.778 44.053 1.103 43.839 0.308996L43.799 0.179996C43.799 0.179996 43.793 0.145996 43.768 0.145996C43.743 0.145996 43.737 0.179996 43.737 0.179996L43.698 0.308996C43.484 1.103 42.772 1.778 41.927 2.026C41.927 2.026 41.878 2.037 41.878 2.066C41.878 2.095 41.927 2.106 41.927 2.106C42.773 2.354 43.484 3.029 43.698 3.823L43.737 3.952C43.737 3.952 43.743 3.986 43.768 3.986C43.793 3.986 43.799 3.952 43.799 3.952L43.838 3.823C44.052 3.029 44.764 2.354 45.609 2.106C45.609 2.106 45.658 2.095 45.659 2.066Z" fill="#F26F21"/>
<path d="M8.827 20.316C8.4 21.222 7.547 21.808 6.34 21.808C4.848 21.808 3.374 20.796 3.374 18.576C3.374 16.675 4.511 15.272 6.287 15.272C7.513 15.272 8.365 15.822 8.88 16.888C8.916 16.977 8.933 17.012 9.039 16.977L11.685 15.947C11.756 15.911 11.827 15.84 11.738 15.628C10.939 13.816 9.145 12.236 6.214 12.236C2.735 12.235 0 14.917 0 18.558C0 21.968 2.522 24.827 6.304 24.827C9.074 24.827 11.064 23.087 11.863 21.151C11.898 21.044 11.881 20.955 11.703 20.92L9.039 20.192C8.898 20.156 8.88 20.227 8.827 20.316V20.316ZM25.229 22.11C25.833 23.85 27.342 24.827 29.758 24.827C32.546 24.827 34.802 23.62 34.802 20.885C34.802 18.665 33.487 17.457 31.214 17.138C30.983 17.102 30.788 17.067 30.628 17.049C29.03 16.782 28.373 16.445 28.373 15.628C28.373 14.971 28.764 14.509 30.007 14.509C30.931 14.509 31.748 15.202 31.996 15.912C32.032 16.001 32.085 16.036 32.209 15.983L34.287 15.148C34.394 15.112 34.465 15.042 34.411 14.846C33.949 13.354 32.493 12.235 30.131 12.235C26.987 12.235 25.407 13.851 25.407 16.16C25.407 18.362 26.899 19.57 29.048 19.783C29.172 19.801 29.35 19.819 29.475 19.836C31.109 20.031 31.624 20.493 31.624 21.221C31.624 22.038 31.056 22.411 29.83 22.411C28.711 22.411 27.894 21.63 27.681 20.972C27.645 20.83 27.645 20.83 27.486 20.884L25.3 21.772C25.176 21.825 25.158 21.914 25.229 22.11V22.11ZM40.232 12.644C40.232 12.502 40.214 12.484 40.054 12.484H37.106C36.947 12.484 36.947 12.466 36.947 12.644V24.365C36.947 24.543 36.947 24.525 37.106 24.525H40.054C40.214 24.525 40.232 24.507 40.232 24.365V12.644ZM53.139 12.519C53.115 12.493 53.074 12.484 52.992 12.484H50.293C50.151 12.484 50.151 12.502 50.151 12.697V18.025C50.151 18.025 45.8 13.994 43.261 12.182C43.205 12.149 43.144 12.136 43.106 12.175V24.457C43.1216 24.4786 43.1422 24.4961 43.1661 24.5079C43.19 24.5198 43.2164 24.5256 43.243 24.525H45.925C46.085 24.525 46.085 24.525 46.085 24.365V18.93C46.085 18.93 50.276 22.784 52.958 24.791C53.06 24.866 53.113 24.869 53.141 24.827V12.519H53.139V12.519ZM79.57 15.042L82.607 15.077C82.714 15.077 82.731 15.06 82.731 14.953V12.662C82.731 12.52 82.713 12.484 82.589 12.484H73.194C73.052 12.484 73.052 12.52 73.052 12.662V14.953C73.052 15.06 73.052 15.077 73.176 15.077L76.302 15.042V24.366C76.302 24.544 76.302 24.526 76.479 24.526H79.409C79.551 24.526 79.569 24.508 79.569 24.366L79.57 15.042V15.042ZM141.664 19.534C141.451 20.795 140.652 21.79 139.125 21.79C137.313 21.79 136.159 20.583 136.159 18.558C136.159 16.622 137.242 15.29 139.178 15.29C140.35 15.29 141.167 15.876 141.557 16.675C141.61 16.782 141.699 16.87 141.824 16.817L144.434 15.822C144.558 15.787 144.541 15.663 144.47 15.503C143.617 13.673 142.002 12.235 139.142 12.235C135.607 12.235 132.837 14.775 132.837 18.54C132.837 22.27 135.252 24.827 139.053 24.827C140.811 24.827 141.575 24.259 142.303 23.62L144.275 24.774C144.328 24.792 144.381 24.827 144.452 24.827C144.612 24.827 144.612 24.756 144.612 24.756V19.481C144.612 19.393 144.576 19.357 144.47 19.357H141.806C141.735 19.357 141.682 19.428 141.664 19.534V19.534ZM170.932 12.513C170.907 12.493 170.868 12.484 170.795 12.484H168.096C167.954 12.484 167.954 12.502 167.954 12.697V18.025C167.954 18.025 163.603 13.994 161.063 12.182C161.003 12.146 160.937 12.132 160.899 12.185V24.433C160.925 24.482 160.967 24.526 161.045 24.526H163.727C163.886 24.526 163.886 24.526 163.886 24.366V18.931C163.886 18.931 168.078 22.785 170.759 24.792C170.852 24.859 170.902 24.868 170.932 24.839V12.513V12.513ZM184.933 24.276C182.98 20.351 180.564 15.414 178.86 12.093C178.842 12.057 178.451 12.04 178.433 12.093C176.817 15.112 174.242 20.351 172.395 24.276C172.324 24.454 172.342 24.525 172.484 24.525H175.432C175.663 24.525 175.699 24.472 175.752 24.33C175.93 23.903 176.16 23.3 176.374 22.803H180.672C180.85 23.247 181.116 23.904 181.329 24.384C181.382 24.508 181.453 24.526 181.542 24.526H184.863C185.022 24.525 185.039 24.507 184.933 24.276V24.276ZM179.73 20.493H177.261L178.468 17.794L179.73 20.493ZM158.72 18.54C158.72 15.059 156.003 12.235 152.416 12.235C148.829 12.235 146.111 15.059 146.111 18.54C146.111 22.021 148.829 24.827 152.416 24.827C156.003 24.827 158.72 22.021 158.72 18.54ZM155.399 18.54C155.399 20.369 154.298 21.79 152.415 21.79C150.497 21.79 149.431 20.369 149.431 18.54C149.431 16.71 150.496 15.272 152.415 15.272C154.298 15.272 155.399 16.711 155.399 18.54ZM132.588 24.525C132.747 24.525 132.765 24.507 132.659 24.276C130.705 20.351 128.29 15.414 126.585 12.093C126.567 12.057 126.176 12.04 126.159 12.093C124.543 15.112 121.967 20.351 120.121 24.276C120.05 24.454 120.068 24.525 120.21 24.525H123.158C123.389 24.525 123.424 24.472 123.477 24.33C123.655 23.903 123.886 23.3 124.099 22.803H128.397C128.575 23.247 128.841 23.904 129.055 24.384C129.108 24.508 129.179 24.526 129.268 24.526L132.588 24.525V24.525ZM127.455 20.493H124.986L126.193 17.794L127.455 20.493ZM119.126 24.045C118.096 22.375 117.084 20.582 116.622 19.854C117.705 19.339 118.274 18.184 118.274 16.55C118.274 14.366 116.818 12.483 114.082 12.483H108.577C108.524 12.483 108.435 12.465 108.435 12.643V24.364C108.435 24.542 108.435 24.524 108.577 24.524H111.49C111.614 24.524 111.632 24.506 111.632 24.364V21.007L113.674 20.971C113.674 20.971 114.97 23.014 115.574 24.168C115.734 24.488 115.805 24.523 115.947 24.523H119.09C119.286 24.525 119.339 24.401 119.126 24.045ZM114.899 16.782C114.899 17.812 114.366 18.523 113.407 18.558L111.631 18.611V15.13H113.389C114.42 15.13 114.899 15.84 114.899 16.782V16.782ZM106.673 24.045C105.643 22.375 104.631 20.582 104.169 19.854C105.253 19.339 105.821 18.184 105.821 16.55C105.821 14.366 104.365 12.483 101.63 12.483H96.124C96.071 12.483 95.982 12.465 95.982 12.643V24.364C95.982 24.542 95.982 24.524 96.124 24.524H99.037C99.161 24.524 99.179 24.506 99.179 24.364V21.007L101.221 20.971C101.221 20.971 102.518 23.014 103.122 24.168C103.282 24.488 103.353 24.523 103.495 24.523H106.639C106.833 24.525 106.886 24.401 106.673 24.045ZM102.446 16.782C102.446 17.812 101.913 18.523 100.954 18.558L99.178 18.611V15.13H100.936C101.966 15.13 102.446 15.84 102.446 16.782V16.782ZM94.455 24.525C94.615 24.525 94.633 24.507 94.526 24.276C92.573 20.351 90.157 15.414 88.452 12.093C88.434 12.057 88.044 12.04 88.026 12.093C86.41 15.112 83.835 20.351 81.988 24.276C81.917 24.454 81.935 24.525 82.077 24.525H85.025C85.256 24.525 85.292 24.472 85.345 24.33C85.522 23.903 85.753 23.3 85.967 22.803H90.265C90.443 23.247 90.709 23.904 90.922 24.384C90.975 24.508 91.046 24.526 91.135 24.526L94.455 24.525V24.525ZM89.322 20.493H86.854L88.061 17.794L89.322 20.493V20.493ZM67.938 18.54C67.938 15.059 65.22 12.235 61.633 12.235C58.046 12.235 55.329 15.059 55.329 18.54C55.329 22.021 58.046 24.827 61.633 24.827C65.221 24.827 67.938 22.021 67.938 18.54ZM64.617 18.54C64.617 20.369 63.516 21.79 61.633 21.79C59.715 21.79 58.649 20.369 58.649 18.54C58.649 16.71 59.715 15.272 61.633 15.272C63.516 15.272 64.617 16.711 64.617 18.54ZM24.513 24.525C24.673 24.525 24.691 24.507 24.584 24.276C22.631 20.351 20.215 15.414 18.51 12.093C18.492 12.057 18.102 12.04 18.084 12.093C16.468 15.112 13.893 20.351 12.046 24.276C11.975 24.454 11.993 24.525 12.135 24.525H15.083C15.314 24.525 15.35 24.472 15.402 24.33C15.58 23.903 15.811 23.3 16.024 22.803H20.322C20.499 23.247 20.766 23.904 20.979 24.384C21.032 24.508 21.103 24.526 21.192 24.526L24.513 24.525V24.525ZM19.381 20.493H16.912L18.12 17.794L19.381 20.493V20.493Z" fill="white"/>
</g>
<defs>
<clipPath id="clip0_14_25">
<rect width="185" height="25" fill="white"/>
</clipPath>
</defs>
</svg>
