<?xml version="1.0" encoding="UTF-8"?><svg id="Capa_2" xmlns="http://www.w3.org/2000/svg" viewBox="0 0 178.14 58.34"><defs><style>.cls-1{fill:#fff;}</style></defs><g id="Capa_1-2"><g><g><path class="cls-1" d="M15.04,49.85c2.33,0,3.66,1.44,3.81,3.54l-1.09,.05c-.09-1.5-1.04-2.63-2.72-2.63s-2.85,1.27-2.85,3.28,1.19,3.28,2.85,3.28,2.63-1.13,2.72-2.63l1.09,.05c-.16,2.1-1.48,3.54-3.81,3.54s-4.01-1.72-4.01-4.24,1.75-4.24,4.01-4.24Z"/><path class="cls-1" d="M24.6,50.01l3.4,8.17h-1.19l-.99-2.4h-3.72l-.96,2.4h-1.1l3.33-8.17h1.23Zm-2.15,4.88h3.01l-1.49-3.63h-.05l-1.47,3.63Z"/><path class="cls-1" d="M30.27,55.2c.06,1.49,1.09,2.26,2.46,2.26,1.22,0,1.98-.52,1.98-1.41,0-.75-.49-1.12-1.56-1.32l-1.62-.31c-1.21-.23-2.04-.88-2.04-2.15,0-1.43,1.13-2.4,2.92-2.4,2.05,0,3.23,1.09,3.24,2.93l-1.02,.05c-.04-1.35-.86-2.11-2.2-2.11-1.18,0-1.84,.56-1.84,1.47,0,.8,.53,1.06,1.48,1.25l1.48,.29c1.49,.29,2.24,.93,2.24,2.24,0,1.5-1.3,2.37-3.06,2.37-2.01,0-3.48-1.1-3.48-3.07l1.01-.06Z"/><path class="cls-1" d="M39.08,50.01v8.17h-1.13v-8.17h1.13Z"/><path class="cls-1" d="M47.21,56.26v-6.25h1.05v8.17h-.89l-4.75-6.56v6.56h-1.05v-8.17h1.17l4.47,6.25Z"/><path class="cls-1" d="M54.43,58.34c-2.39,0-4.06-1.72-4.06-4.24s1.67-4.24,4.06-4.24,4.06,1.73,4.06,4.24-1.69,4.24-4.06,4.24Zm0-7.52c-1.76,0-2.91,1.28-2.91,3.28s1.14,3.28,2.91,3.28,2.89-1.28,2.89-3.28-1.13-3.28-2.89-3.28Z"/><path class="cls-1" d="M66.29,58.18v-7.24h-2.97v-.93h7.11v.93h-3.02v7.24h-1.12Z"/><path class="cls-1" d="M75.43,58.34c-2.39,0-4.06-1.72-4.06-4.24s1.67-4.24,4.06-4.24,4.06,1.73,4.06,4.24-1.69,4.24-4.06,4.24Zm0-7.52c-1.76,0-2.91,1.28-2.91,3.28s1.14,3.28,2.91,3.28,2.89-1.28,2.89-3.28-1.13-3.28-2.89-3.28Z"/><path class="cls-1" d="M86.94,58.18c-.16-.22-.27-.82-.34-1.78-.05-.91-.48-1.52-1.6-1.52h-2.31v3.29h-1.1v-8.17h3.32c2.08,0,3.07,.96,3.07,2.41,0,1.26-.86,1.92-1.85,2.04,1,.19,1.48,.8,1.56,1.76,.1,1.19,.14,1.66,.42,1.96h-1.17Zm-2.09-4.19c1.39,0,2.01-.52,2.01-1.53,0-.93-.62-1.53-2.01-1.53h-2.15v3.06h2.15Z"/><path class="cls-1" d="M95.62,58.18c-.16-.22-.27-.82-.34-1.78-.05-.91-.48-1.52-1.6-1.52h-2.31v3.29h-1.1v-8.17h3.32c2.08,0,3.07,.96,3.07,2.41,0,1.26-.86,1.92-1.85,2.04,1,.19,1.48,.8,1.56,1.76,.1,1.19,.14,1.66,.42,1.96h-1.17Zm-2.09-4.19c1.39,0,2.01-.52,2.01-1.53,0-.93-.62-1.53-2.01-1.53h-2.15v3.06h2.15Z"/><path class="cls-1" d="M104.78,58.18h-5.82v-8.17h5.71v.93h-4.62v2.57h3.67v.92h-3.67v2.81h4.73v.93Z"/><path class="cls-1" d="M108.1,50.01v7.24h4.55v.93h-5.68v-8.17h1.13Z"/><path class="cls-1" d="M117.81,58.34c-2.39,0-4.06-1.72-4.06-4.24s1.67-4.24,4.06-4.24,4.06,1.73,4.06,4.24-1.69,4.24-4.06,4.24Zm0-7.52c-1.76,0-2.91,1.28-2.91,3.28s1.14,3.28,2.91,3.28,2.89-1.28,2.89-3.28-1.13-3.28-2.89-3.28Z"/><path class="cls-1" d="M123.97,50.01h2.96c2.57,0,4.19,1.53,4.19,4.09s-1.62,4.09-4.19,4.09h-2.96v-8.17Zm2.89,7.25c2,0,3.09-1.18,3.09-3.16s-1.09-3.17-3.09-3.17h-1.76v6.33h1.76Z"/><path class="cls-1" d="M136.92,58.34c-2.39,0-4.06-1.72-4.06-4.24s1.67-4.24,4.06-4.24,4.06,1.73,4.06,4.24-1.69,4.24-4.06,4.24Zm0-7.52c-1.76,0-2.91,1.28-2.91,3.28s1.14,3.28,2.91,3.28,2.89-1.28,2.89-3.28-1.13-3.28-2.89-3.28Z"/><path class="cls-1" d="M148.72,56.26v-6.25h1.05v8.17h-.89l-4.75-6.56v6.56h-1.05v-8.17h1.17l4.47,6.25Z"/><path class="cls-1" d="M158.09,58.18h-5.82v-8.17h5.71v.93h-4.62v2.57h3.67v.92h-3.67v2.81h4.73v.93Z"/><path class="cls-1" d="M160.66,55.2c.06,1.49,1.09,2.26,2.46,2.26,1.22,0,1.98-.52,1.98-1.41,0-.75-.49-1.12-1.56-1.32l-1.62-.31c-1.21-.23-2.04-.88-2.04-2.15,0-1.43,1.13-2.4,2.92-2.4,2.05,0,3.23,1.09,3.24,2.93l-1.02,.05c-.04-1.35-.86-2.11-2.2-2.11-1.18,0-1.84,.56-1.84,1.47,0,.8,.53,1.06,1.48,1.25l1.48,.29c1.49,.29,2.24,.93,2.24,2.24,0,1.5-1.3,2.37-3.06,2.37-2.01,0-3.48-1.1-3.48-3.07l1.01-.06Z"/></g><g><path class="cls-1" d="M0,30.49c0-5.22,3.52-8.61,8.86-8.61,4.74,0,8.04,2.4,8.04,6.27v.2h-2.97v-.2c0-2.4-1.67-3.69-5.14-3.69-4.02,0-5.94,1.87-5.94,6.04s1.9,6.02,5.82,6.02,5.57-1.1,5.57-3.92v-.22h-6.19v-2.05h8.86v8.54h-2.45v-3.62h-.17c-.7,2.45-2.82,3.87-6.09,3.87-4.92,0-8.19-3.4-8.19-8.61Z"/><path class="cls-1" d="M18.42,38.85V22.12h8.69c3.79,0,6.14,1.8,6.14,4.92,0,2.77-1.82,4.47-4.97,4.64v.17c1.3,.35,1.9,1.1,2.5,2.15l2.8,4.84h-3.1l-2.67-4.62c-.75-1.32-1.52-1.87-3.62-1.87h-3.07v6.49h-2.7Zm2.7-8.56h5.97c2.25,0,3.37-.77,3.37-2.87s-1.12-2.87-3.37-2.87h-5.97v5.74Z"/><path class="cls-1" d="M34.35,38.85l7.46-16.73h3.79l7.46,16.73h-3.05l-1.92-4.34h-8.84l-1.92,4.34h-3Zm5.99-6.77h6.69l-2.27-5.09-.97-2.37h-.2l-.97,2.37-2.27,5.09Z"/><path class="cls-1" d="M54.33,38.85V22.12h2.9l7.49,9.79,2.17,3.12h.2l-.12-3.02v-9.89h2.7v16.73h-2.9l-7.54-9.76-2.1-2.95h-.2l.1,2.9v9.81h-2.7Z"/><path class="cls-1" d="M74.36,44.4V0h1.48V44.4h-1.48Z"/><path class="cls-1" d="M80.78,38.85V22.12h3.67l4.82,9.69,1.52,3.47h.2l1.47-3.47,4.77-9.69h3.67v16.73h-2.7v-10.26l.1-2.42h-.2l-1.02,2.42-4.62,9.26h-3.25l-4.62-9.26-1.02-2.42h-.2l.1,2.42v10.26h-2.7Z"/><path class="cls-1" d="M101.91,38.85l7.46-16.73h3.79l7.46,16.73h-3.05l-1.92-4.34h-8.84l-1.92,4.34h-3Zm5.99-6.77h6.69l-2.27-5.09-.97-2.37h-.2l-.97,2.37-2.27,5.09Z"/><path class="cls-1" d="M122.03,38.85V22.12h7.61c5.19,0,8.46,3.2,8.46,8.36s-3.27,8.36-8.46,8.36h-7.61Zm2.67-14.31v11.88h4.94c3.87,0,5.62-1.65,5.62-5.94s-1.75-5.94-5.62-5.94h-4.94Z"/><path class="cls-1" d="M140.11,38.85V22.12h8.69c3.79,0,6.14,1.8,6.14,4.92,0,2.77-1.82,4.47-4.97,4.64v.17c1.3,.35,1.9,1.1,2.5,2.15l2.8,4.84h-3.1l-2.67-4.62c-.75-1.32-1.52-1.87-3.62-1.87h-3.07v6.49h-2.7Zm2.7-8.56h5.97c2.25,0,3.37-.77,3.37-2.87s-1.12-2.87-3.37-2.87h-5.97v5.74Z"/><path class="cls-1" d="M156.88,38.85V22.12h2.7v16.73h-2.7Z"/><path class="cls-1" d="M162.06,38.85V22.12h7.61c5.19,0,8.46,3.2,8.46,8.36s-3.27,8.36-8.46,8.36h-7.61Zm2.67-14.31v11.88h4.94c3.87,0,5.62-1.65,5.62-5.94s-1.75-5.94-5.62-5.94h-4.94Z"/></g></g></g></svg>