<svg width="67" height="69" viewBox="0 0 67 69" fill="none" xmlns="http://www.w3.org/2000/svg">
<path d="M60.6296 11.9604L48.0446 8.62933V14.1518L59.2603 17.1199C60.6856 17.4989 61.5344 18.9643 61.1581 20.3842L50.2359 61.6732C49.8569 63.0905 48.3916 63.9473 46.9662 63.571L38.3529 61.2915C38.0246 61.3235 37.707 61.3903 37.368 61.3903H18.4438C18.8762 61.5931 19.3246 61.7746 19.8024 61.9001L45.605 68.7304C49.8809 69.8648 54.2637 67.3131 55.3954 63.0371L66.3202 21.7535C67.4492 17.4802 64.9029 13.0921 60.6296 11.9604Z" fill="#1E293B"/>
<path d="M37.368 0H8.00743C3.58733 0 0 3.58733 0 8.00743V50.7137C0 55.1338 3.58733 58.7211 8.00743 58.7211H37.368C41.7881 58.7211 45.3754 55.1338 45.3754 50.7137V8.00743C45.3754 3.58733 41.7881 0 37.368 0ZM40.0371 50.7137C40.0371 52.1844 38.8387 53.3828 37.368 53.3828H8.00743C6.53673 53.3828 5.33828 52.1844 5.33828 50.7137V8.00743C5.33828 6.53673 6.53673 5.33828 8.00743 5.33828H37.368C38.8387 5.33828 40.0371 6.53673 40.0371 8.00743V50.7137ZM34.4026 30.4656C34.4026 34.1624 31.9283 36.5112 28.3943 36.5192C26.566 36.5192 24.7163 35.2834 23.6673 34.2584C23.6673 34.2584 24.6495 38.804 26.4405 42.2418C26.6727 42.6876 18.8068 42.6983 19.0176 42.2472C20.7606 38.5211 21.7375 34.2584 21.7375 34.2584C20.6859 35.2354 18.668 36.5326 16.9784 36.5352C13.4525 36.5379 10.9622 34.1944 10.9568 30.503C10.9515 24.3159 22.6263 16.2044 22.6263 16.2044H22.6904C22.6904 16.2044 34.3919 24.2839 34.4026 30.4656ZM34.5494 8.37043C34.504 8.25833 34.464 8.16758 34.4106 8.10352C34.3572 8.03946 34.2478 8.00743 34.0823 8.00743H32.5635C32.4007 8.00743 32.2913 8.03946 32.2379 8.09818C32.1818 8.15423 32.1338 8.24231 32.0938 8.35442L29.7716 15.7026C29.7262 15.8414 29.7236 15.9241 29.7556 15.9615C29.7876 15.9988 29.8517 16.0149 29.9398 16.0149H31.2743C31.3918 16.0149 31.4772 15.9855 31.5439 15.9401C31.6053 15.8921 31.6587 15.8093 31.6987 15.6785L32.1311 14.2078H34.528L34.9257 15.6412C34.9658 15.7666 35.0058 15.8654 35.0538 15.9214C35.0992 15.9828 35.1953 16.0149 35.3314 16.0149H36.8262C36.9142 16.0149 36.9676 15.9855 36.9836 15.9401C36.9996 15.8947 36.9997 15.8253 36.9703 15.7266L34.5494 8.37043ZM32.5395 12.7532L32.8998 11.4079L33.2976 9.94523H33.3536L33.7433 11.4186L34.1036 12.7532H32.5395V12.7532ZM13.9783 42.7063C13.8395 42.7063 13.7461 42.7383 13.7007 42.797C13.6527 42.8558 13.6126 42.9545 13.5726 43.08L13.1749 44.5133H10.7753L10.3429 43.0426C10.3029 42.9118 10.2522 42.8291 10.1881 42.781C10.1241 42.7356 10.0386 42.7063 9.9212 42.7063H8.58663C8.49855 42.7063 8.43449 42.725 8.40513 42.7623C8.37577 42.7997 8.37577 42.8824 8.42114 43.0212L10.7433 50.3694C10.7833 50.4815 10.8314 50.5669 10.8874 50.6256C10.9408 50.6817 11.0502 50.7137 11.2104 50.7137H12.7265C12.8946 50.7137 13.0041 50.6817 13.0574 50.6176C13.1108 50.5562 13.1509 50.4628 13.1962 50.3507L15.6145 42.9945C15.6438 42.8958 15.6438 42.8264 15.6278 42.781C15.6118 42.7356 15.5611 42.7063 15.473 42.7063H13.9783ZM12.3928 47.3025L12.0031 48.7759H11.9471L11.5494 47.3132L11.189 45.968H12.7532L12.3928 47.3025Z" fill="#1E293B"/>
<path d="M55.7637 19.3753C55.753 19.2552 55.7317 19.1591 55.7023 19.0844C55.665 19.007 55.5662 18.9482 55.4061 18.9082L53.9407 18.5132C53.7886 18.4705 53.6738 18.4705 53.6071 18.5132C53.535 18.5585 53.4656 18.6279 53.4015 18.724L49.243 25.21C49.1603 25.3355 49.1389 25.4102 49.1603 25.4583C49.1789 25.501 49.2323 25.533 49.3204 25.557L50.6096 25.9067C50.7217 25.9361 50.8125 25.9334 50.8872 25.9014C50.9593 25.8747 51.034 25.8079 51.1061 25.6932L51.9068 24.3853L54.221 25.0099L54.2343 26.4992C54.2343 26.63 54.253 26.7368 54.2823 26.8035C54.3144 26.8756 54.3945 26.929 54.5306 26.9663L55.9719 27.356C56.0573 27.3801 56.116 27.3694 56.1427 27.324C56.1694 27.284 56.1854 27.2172 56.1854 27.1158L55.7637 19.3753ZM52.6809 23.0854L53.3802 21.8763L54.1462 20.5711L54.1996 20.5871L54.1916 22.1085L54.1889 23.4938L52.6809 23.0854Z" fill="#1E293B"/>
</svg>
